<svg width="100" height="100" viewBox="0 0 100 100" xmlns="http://www.w3.org/2000/svg"><title>design-categories-menu-design</title><g fill="none" fill-rule="evenodd"><path d="M87.334 79.286H55.601c-2.38 0-5.77 2.5-5.77 5.714V19.286c0-2.357 1.947-4.286 4.327-4.286h33.176c2.38 0 4.328 1.929 4.328 4.286V75c0 2.357-1.948 4.286-4.328 4.286" fill="#F5F5F5"/><path d="M56.061 24.872h16.384" stroke="#EBB200" stroke-width="2" stroke-linecap="round"/><path d="M56.061 29.359h11.045" stroke="#F08481" stroke-width="2" stroke-linecap="round"/><path d="M56.061 33.846h15.495" stroke="#7DDEB1" stroke-width="2" stroke-linecap="round"/><path d="M56.061 38.333h16.384" stroke="#5D6D81" stroke-width="2" stroke-linecap="round"/><path d="M56.061 42.82h13.715" stroke="#EBB200" stroke-width="2" stroke-linecap="round"/><path d="M80.982 24.872h4.915m-4.915 4.487h4.915m-4.915 4.487h4.915m-4.915 4.487h4.915m-4.915 4.487h4.915" stroke="#5D6D81" stroke-width="2" stroke-linecap="round"/><path d="M56.061 47.308h10.155" stroke="#7DDEB1" stroke-width="2" stroke-linecap="round"/><path d="M56.061 51.795h7.485" stroke="#5D6D81" stroke-width="2" stroke-linecap="round"/><path d="M56.061 56.282h16.384" stroke="#F08481" stroke-width="2" stroke-linecap="round"/><path d="M56.061 60.77h11.045" stroke="#5D6D81" stroke-width="2" stroke-linecap="round"/><path d="M56.061 65.256h15.495" stroke="#7DDEB1" stroke-width="2" stroke-linecap="round"/><path d="M80.982 47.308h4.915m-4.915 4.487h4.915m-4.915 4.487h4.915m-4.915 4.488h4.915m-4.915 4.486h4.915m-29.836 4.488h15.495m9.426 0h4.915" stroke="#5D6D81" stroke-width="2" stroke-linecap="round"/><path d="M87.334 79.286H55.601c-2.38 0-5.77 2.5-5.77 5.714V19.286c0-2.357 1.947-4.286 4.327-4.286h33.176c2.38 0 4.328 1.929 4.328 4.286V75c0 2.357-1.948 4.286-4.328 4.286z" stroke="#5D6D81" stroke-width="2" stroke-linecap="round" stroke-linejoin="round"/><path d="M44.061 79.286c2.38 0 5.77 2.5 5.77 5.714V19.286c0-2.357-1.947-4.286-4.327-4.286H12.327C9.947 15 8 16.929 8 19.286V75c0 2.357 1.947 4.286 4.327 4.286h31.734z" fill="#F5F5F5"/><path d="M12.327 79.286h31.734c2.38 0 5.77 2.5 5.77 5.714V19.286c0-2.357-1.947-4.286-4.327-4.286H12.327C9.947 15 8 16.929 8 19.286V75c0 2.357 1.947 4.286 4.327 4.286z" stroke="#5D6D81" stroke-width="2" stroke-linecap="round" stroke-linejoin="round"/><path d="M14.23 42.82h10.155" stroke="#7DDEB1" stroke-width="2" stroke-linecap="round"/><path d="M14.23 47.308h7.485m-7.485 4.487h16.384" stroke="#5D6D81" stroke-width="2" stroke-linecap="round"/><path d="M14.23 56.282h11.045" stroke="#7DDEB1" stroke-width="2" stroke-linecap="round"/><path d="M14.23 60.77h15.495" stroke="#F08481" stroke-width="2" stroke-linecap="round"/><path d="M14.23 65.256h16.384" stroke="#5D6D81" stroke-width="2" stroke-linecap="round"/><path d="M14.23 69.744h13.715" stroke="#EBB200" stroke-width="2" stroke-linecap="round"/><path d="M39.15 42.82h4.916m-4.916 4.488h4.916m-4.916 4.487h4.916m-4.916 4.487h4.916M39.15 60.77h4.916m-4.916 4.486h4.916m-4.916 4.488h4.916" stroke="#5D6D81" stroke-width="2" stroke-linecap="round"/><path d="M29.25 38.252v-.857a8.11 8.11 0 0 0 1.798-.2l.189.837a9.03 9.03 0 0 1-1.988.22zm3.9-.887l-.371-.773a8.148 8.148 0 0 0 1.533-.961l.533.67a9.005 9.005 0 0 1-1.694 1.064zm3.13-2.492l-.67-.536a8.15 8.15 0 0 0 .968-1.53l.77.375a9.006 9.006 0 0 1-1.069 1.69zm1.732-3.558l-.834-.196c.137-.584.21-1.186.215-1.797l.857.007a9.02 9.02 0 0 1-.238 1.986zm.029-4.004l-.838.184a8.08 8.08 0 0 0-.583-1.712l.775-.366c.285.604.502 1.239.646 1.894zm-1.705-3.61l-.674.53a8.195 8.195 0 0 0-1.268-1.293l.542-.664c.518.422.988.901 1.4 1.427zm-3.166-2.554l-.374.771a8.081 8.081 0 0 0-1.706-.602l.193-.835a8.938 8.938 0 0 1 1.887.666zm-3.822-.896l-.01.857h-.087c-.583 0-1.156.06-1.715.18l-.18-.839a9.04 9.04 0 0 1 1.992-.198zm-3.91.844l.363.776a8.144 8.144 0 0 0-1.544.945l-.526-.677c.528-.41 1.1-.76 1.706-1.044zm-3.156 2.457l.663.543a8.153 8.153 0 0 0-.984 1.52l-.767-.384a9.01 9.01 0 0 1 1.088-1.679zm-1.773 3.54l.832.205a8.153 8.153 0 0 0-.234 1.794l-.857-.016a9.01 9.01 0 0 1 .26-1.983zm-.071 4.005l.839-.175a8.08 8.08 0 0 0 .565 1.719l-.78.357a8.937 8.937 0 0 1-.624-1.901zm1.664 3.626l.68-.521c.369.48.79.918 1.254 1.306l-.55.658a9.052 9.052 0 0 1-1.384-1.443zm3.136 2.588l.383-.767c.54.27 1.11.478 1.699.621l-.202.833a8.94 8.94 0 0 1-1.88-.687zm3.815.939l.018-.857.175.002v.857c-.065 0-.129 0-.193-.002zm6.128-10.268c.072-.01.14.039.157.113a.147.147 0 0 1-.095.172c-.876.293-3.234 1.209-3.61 1.913-.397.74.67 2.73 1.116 3.433a.15.15 0 0 1-.04.202.14.14 0 0 1-.195-.036c-.015-.021-1.495-2.123-2.916-1.977-.827.084-2.273 2.156-2.76 2.947a.141.141 0 0 1-.12.068.138.138 0 0 1-.07-.018.15.15 0 0 1-.059-.193c.335-.709 1.093-2.69.597-3.337-1.064-1.384-3.633-.614-3.66-.606a.142.142 0 0 1-.176-.097.148.148 0 0 1 .091-.183c.752-.258 2.73-1.074 2.945-1.775-.076-1.336-1.83-2.854-1.848-2.87a.15.15 0 0 1-.02-.204.14.14 0 0 1 .198-.025c.022.018 2.269 1.777 3.87 1.245 1.768-.589 2.61-3.093 2.618-3.118a.142.142 0 0 1 .172-.095c.073.02.118.095.103.17-.006.031-.584 3.078.171 4.082.33.437 2.34.348 3.53.189zM33.599 25.5a1.074 1.074 0 1 1-1.17 1.802 1.074 1.074 0 0 1 1.17-1.802zm-8.294 2.106c.373.241.48.741.236 1.114a.805.805 0 1 1-.236-1.114zm.757 3.581c.331.242.426.74.21 1.114-.215.374-.658.48-.99.237-.332-.242-.426-.74-.21-1.114.215-.373.658-.48.99-.237zm4.395 1.626a.895.895 0 1 1-.974 1.502.895.895 0 0 1 .974-1.502zm3.044-2.865a.895.895 0 1 1-.974 1.501.895.895 0 0 1 .974-1.501zm-4.559-5.88a1.073 1.073 0 1 1-1.166 1.801 1.073 1.073 0 0 1 1.166-1.801z" fill="#5D6D81" fill-rule="nonzero"/></g></svg>