<svg width="100" height="100" viewBox="0 0 100 100" xmlns="http://www.w3.org/2000/svg"><title>design-categories-app-design</title><g fill="none" fill-rule="evenodd"><path d="M71.523 94H31.185c-2.53 0-4.58-1.991-4.58-4.448V11.355c0-2.457 2.05-4.448 4.58-4.448h40.338c2.53 0 4.582 1.991 4.582 4.448v78.197c0 2.457-2.052 4.448-4.582 4.448z" fill="#6E8097"/><path d="M71.585 94H31.247c-2.53 0-4.58-2.012-4.58-4.494V10.494c0-2.482 2.05-4.494 4.58-4.494h40.338c2.53 0 4.582 2.012 4.582 4.494v79.012c0 2.482-2.051 4.494-4.582 4.494z" stroke="#5D6D81" stroke-width="2" stroke-linecap="round"/><path fill="#F5F5F5" d="M26.605 83.113h48.66V16.887h-48.66z"/><path d="M51.5 61.17v-1.144c.814 0 1.617-.09 2.398-.265l.251 1.115a12.04 12.04 0 0 1-2.65.293zm5.201-1.184l-.496-1.03a10.86 10.86 0 0 0 2.044-1.282l.71.895a12.007 12.007 0 0 1-2.258 1.417zm4.171-3.322l-.892-.715c.504-.63.937-1.313 1.29-2.039l1.028.5c-.39.802-.869 1.558-1.426 2.254zm2.311-4.744l-1.113-.26c.183-.78.28-1.582.287-2.397l1.143.01c-.008.9-.115 1.786-.317 2.647zm.038-5.338l-1.116.245a10.774 10.774 0 0 0-.778-2.283l1.033-.487c.38.804.669 1.65.86 2.525zm-2.273-4.814l-.899.706a10.927 10.927 0 0 0-1.69-1.724l.722-.885a12.07 12.07 0 0 1 1.867 1.903zm-4.221-3.406l-.499 1.029a10.775 10.775 0 0 0-2.275-.803l.258-1.114c.871.202 1.715.5 2.516.888zm-5.097-1.195l-.012 1.143h-.116c-.778 0-1.542.08-2.287.24l-.24-1.117a12.054 12.054 0 0 1 2.527-.266h.128zm-5.213 1.126l.484 1.035c-.73.342-1.42.765-2.058 1.26l-.701-.902a12.001 12.001 0 0 1 2.275-1.393zm-4.208 3.277l.884.724a10.87 10.87 0 0 0-1.312 2.025l-1.023-.51c.4-.799.886-1.55 1.45-2.24zm-2.364 4.719l1.11.273a10.87 10.87 0 0 0-.312 2.393l-1.143-.022c.017-.899.134-1.784.345-2.644zm-.095 5.34l1.12-.233c.165.792.418 1.56.753 2.291l-1.04.477c-.37-.81-.65-1.659-.833-2.535zm2.22 4.835l.907-.695a10.88 10.88 0 0 0 1.671 1.741l-.732.878a12.07 12.07 0 0 1-1.846-1.924zm4.181 3.45l.51-1.022c.72.359 1.48.637 2.266.828l-.27 1.11a11.92 11.92 0 0 1-2.506-.915zm5.086 1.253l.025-1.143c.077.002.155.002.233.002v1.143c-.086 0-.172 0-.258-.002zm8.17-13.691a.191.191 0 0 1 .21.15.197.197 0 0 1-.126.23c-1.169.39-4.312 1.612-4.815 2.551-.528.986.896 3.639 1.489 4.578a.2.2 0 0 1-.052.268.186.186 0 0 1-.261-.048c-.02-.028-1.993-2.83-3.888-2.636-1.103.112-3.031 2.875-3.68 3.93a.189.189 0 0 1-.161.09.184.184 0 0 1-.092-.024.2.2 0 0 1-.079-.257c.446-.945 1.458-3.588.795-4.45-1.418-1.844-4.843-.818-4.878-.808a.19.19 0 0 1-.235-.129.197.197 0 0 1 .121-.244c1.002-.344 3.64-1.432 3.927-2.366-.101-1.782-2.44-3.806-2.464-3.826a.2.2 0 0 1-.027-.273.186.186 0 0 1 .264-.033c.03.024 3.025 2.37 5.159 1.66 2.357-.785 3.48-4.124 3.492-4.158a.19.19 0 0 1 .229-.126.196.196 0 0 1 .137.227c-.008.041-.778 4.103.229 5.442.438.583 3.12.464 4.707.252zm-2.109-3.31a1.432 1.432 0 1 1-1.56 2.404 1.432 1.432 0 0 1 1.56-2.403zM46.24 46.975c.498.322.639.989.315 1.486a1.073 1.073 0 1 1-.315-1.485zm1.009 4.775c.442.323.568.988.28 1.486-.286.498-.877.64-1.32.316-.443-.323-.568-.988-.28-1.485.286-.498.877-.64 1.32-.317zm5.86 2.168a1.193 1.193 0 1 1-1.299 2.003 1.193 1.193 0 0 1 1.299-2.003zm4.06-3.82a1.193 1.193 0 1 1-1.3 2.002 1.193 1.193 0 0 1 1.3-2.002zm-6.08-7.84a1.43 1.43 0 1 1-1.558 2.403 1.432 1.432 0 1 1 1.559-2.403z" fill="#5D6D81" fill-rule="nonzero"/><path stroke="#5D6D81" stroke-width="2" stroke-linecap="round" d="M26.667 83h49.5V17h-49.5zm21.565-71.557h8.11m-13.517 0h.901"/><path d="M55.44 89.464c0 2.505-2.016 4.536-4.505 4.536s-4.506-2.03-4.506-4.536 2.017-4.536 4.506-4.536c2.489 0 4.506 2.03 4.506 4.536" fill="#C5CDD7"/><path d="M55.44 88.557c0 2.505-2.016 4.536-4.505 4.536s-4.506-2.03-4.506-4.536 2.017-4.536 4.506-4.536c2.489 0 4.506 2.03 4.506 4.536zM31.11 26.866l5.407-5.443M31.11 35.03l3.605-3.628m4.505-5.443l4.506-4.536M31.11 43.196l13.517-13.608m6.308-7.258l.901-.907" stroke="#5D6D81" stroke-width="2" stroke-linecap="round"/><path d="M23.901 21.423v.907" stroke="#7DDEB1" stroke-width="2" stroke-linecap="round"/><path d="M23.901 26.866v.907" stroke="#FBD86A" stroke-width="2" stroke-linecap="round"/><path d="M23.901 32.31v.906" stroke="#F08481" stroke-width="2" stroke-linecap="round"/></g></svg>