<svg width="100" height="100" viewBox="0 0 100 100" xmlns="http://www.w3.org/2000/svg"><title>design-categories-mascot-design</title><g transform="translate(10 7)" stroke="#5D6D81" stroke-width="2" fill="none" fill-rule="evenodd"><path d="M49.81 67.2v11.296a31.945 31.945 0 0 1-19.37 0V67.228a19.153 19.153 0 0 1 9.685-2.4A19.294 19.294 0 0 1 49.81 67.2z" fill="#F08481" fill-rule="nonzero"/><path d="M71.2 49.655a27.6 27.6 0 0 1-.041 1.504 29.277 29.277 0 0 1-1.605 8.262 30.12 30.12 0 0 1-4.538 8.4A31.068 31.068 0 0 1 49.81 78.497V67.2a19.294 19.294 0 0 0-9.685-2.372 19.153 19.153 0 0 0-9.686 2.4v11.255a26.86 26.86 0 0 1-2.49-.91 30.892 30.892 0 0 1-12.605-9.628 29.899 29.899 0 0 1-6.212-16.18 8.607 8.607 0 0 1-.028-.606 17.976 17.976 0 0 1-.055-1.504 34.34 34.34 0 0 1 .263-4.165c.138-1.31.346-2.69.608-4.097.028-.124.042-.248.07-.372a73.196 73.196 0 0 1 2.213-8.524c.166-.525.346-1.062.526-1.6.028-.07.042-.124.07-.194a75.408 75.408 0 0 1 1.715-4.524c.29-.703.58-1.393.9-2.082A64.389 64.389 0 0 1 17.17 20.4a65.032 65.032 0 0 1 1.827-3.352 61.586 61.586 0 0 1 2.061-3.338c.346-.537.706-1.048 1.066-1.558.194-.262.373-.51.553-.759h.028a41.799 41.799 0 0 1 3.224-3.903 37.646 37.646 0 0 1 2.974-2.828A17.737 17.737 0 0 1 40.153 0c5.132 0 9.975 2.952 14.25 7.531a43.868 43.868 0 0 1 3.321 4.014c.014.014.014.014.014.027.014.042.041.083.055.125.139.193.263.372.415.565a60.092 60.092 0 0 1 2.989 4.676c.012.04.031.076.055.11a58.12 58.12 0 0 1 1.799 3.31 83.082 83.082 0 0 1 2.684 5.821 72.025 72.025 0 0 1 1.716 4.524c.03.077.052.155.069.235.18.524.36 1.048.512 1.559a70.414 70.414 0 0 1 1.079 3.627l.014.014a70.024 70.024 0 0 1 1.204 5.297 51.7 51.7 0 0 1 .608 4.055 34.34 34.34 0 0 1 .263 4.165z" fill="#F8C936" fill-rule="nonzero"/><path d="M70.343 41.6c9.957 6.933 12.214 15.2 6.772 24.8.544-7.467-1.36-12.267-5.714-14.4l-.242-9.6M69.07 60c2.721 8 .545 14.667-6.53 20 2.72-3.2 3.537-7.2 2.449-12l4.081-7.2M10.612 60c-2.72 8-.544 14.667 6.53 20-2.72-3.2-3.537-7.2-2.448-12l-4.082-7.2m-.816-19.2C-.161 48.533-2.42 56.8 3.023 66.4 2.48 58.933 4.384 54.133 8.738 52l.242-9.6" fill="#7DDEB1"/><path fill="#FFF" fill-rule="nonzero" d="M9.99 40.993v.028m26.532-3.03c-1.96 5.369-8.518 10.854-13.48 9.054-4.962-1.8-6.448-10.205-4.488-15.573 1.96-5.37 8.518-10.854 13.48-9.054 4.961 1.8 6.448 10.204 4.488 15.573z"/><ellipse fill="#5BAADC" fill-rule="nonzero" cx="29.796" cy="35.133" rx="6.918" ry="6.897"/><path d="M43.727 37.991c1.96 5.369 8.518 10.854 13.48 9.054 4.962-1.8 6.448-10.205 4.488-15.573-1.96-5.37-8.518-10.854-13.48-9.054-4.961 1.8-6.448 10.204-4.488 15.573z" fill="#FFF" fill-rule="nonzero"/><ellipse fill="#5BAADC" fill-rule="nonzero" cx="50.453" cy="35.133" rx="6.918" ry="6.897"/><path d="M37.357 53.793v1.38m5.535-1.38v1.38" fill="#FFF" fill-rule="nonzero"/><ellipse fill="#F08481" fill-rule="nonzero" cx="22.138" cy="57.931" rx="5.534" ry="5.517"/><ellipse fill="#F08481" fill-rule="nonzero" cx="58.111" cy="57.931" rx="5.534" ry="5.517"/></g></svg>