<svg width="100" height="100" viewBox="0 0 100 100" xmlns="http://www.w3.org/2000/svg"><title>design-categories-resume-design</title><g fill="none" fill-rule="evenodd"><path d="M45.53 80.082l-9.045 1.022 1.006-9.21 37.251-37.933V21.645L60.361 7H11.465C9.877 7 8.59 8.311 8.59 9.93v79.08c0 1.616 1.288 2.928 2.876 2.928h60.4c1.59 0 2.877-1.312 2.877-2.929V50.335L45.53 80.082z" fill="#F4F4F4" fill-rule="nonzero"/><path d="M45.53 80.082l-9.045 1.022 1.006-9.21 37.251-37.933V21.645L60.361 7H11.465C9.877 7 8.59 8.311 8.59 9.93v79.08c0 1.616 1.288 2.928 2.876 2.928h60.4c1.59 0 2.877-1.312 2.877-2.929V50.335L45.53 80.082z" stroke="#5D6D81" stroke-width="2" stroke-linecap="round" stroke-linejoin="round"/><path fill="#6E8097" fill-rule="nonzero" d="M74.743 21.644H60.362V7z"/><path stroke="#5D6D81" stroke-width="2" stroke-linecap="round" stroke-linejoin="round" d="M74.743 21.644H60.362V7z"/><path fill="#EBB200" fill-rule="nonzero" d="M45.53 80.082l-9.045 1.022 1.006-9.21L78.692 29.94l8.04 8.186z"/><path stroke="#5D6D81" stroke-width="2" stroke-linecap="round" stroke-linejoin="round" d="M45.53 80.082l-9.045 1.022 1.006-9.21L78.692 29.94l8.04 8.186z"/><path d="M86.732 38.125l-8.04-8.188 4.02-4.093a4.212 4.212 0 0 1 6.03 0l2.01 2.048a4.4 4.4 0 0 1 0 6.14l-4.02 4.093z" fill="#F08481" fill-rule="nonzero"/><path d="M86.732 38.125l-8.04-8.188 4.02-4.093a4.212 4.212 0 0 1 6.03 0l2.01 2.048a4.4 4.4 0 0 1 0 6.14l-4.02 4.093zM34.476 83.151l2.009-2.046m42.207-42.98L44.525 72.92" stroke="#5D6D81" stroke-width="2" stroke-linecap="round" stroke-linejoin="round"/><path fill="#6E8097" fill-rule="nonzero" d="M82.711 42.218l-8.039-8.186 4.02-4.095 8.04 8.188z"/><path stroke="#5D6D81" stroke-width="2" stroke-linecap="round" stroke-linejoin="round" d="M82.711 42.218l-8.039-8.186 4.02-4.095 8.04 8.188zM44.526 72.919l-7.036-1.024-1.005 9.21 9.044-1.022zm1.454-42.488c0-7.28-5.794-13.18-12.943-13.18-7.148 0-12.942 5.9-12.942 13.18 0 7.28 5.794 13.18 12.942 13.18 7.15 0 12.943-5.9 12.943-13.18z"/><path d="M37.352 26.77c0 2.022-1.932 3.661-4.315 3.661-2.382 0-4.314-1.639-4.314-3.661 0-2.022 1.932-3.661 4.314-3.661 2.383 0 4.315 1.639 4.315 3.661" fill="#5BAADC" fill-rule="nonzero"/><path d="M37.352 26.77c0 2.022-1.932 3.661-4.315 3.661-2.382 0-4.314-1.639-4.314-3.661 0-2.022 1.932-3.661 4.314-3.661 2.383 0 4.315 1.639 4.315 3.661z" stroke="#5D6D81" stroke-width="2" stroke-linecap="round" stroke-linejoin="round"/><path d="M35.481 36.289h-4.887c-2.948 0-5.35 1.565-5.508 4.528 2.196 1.744 4.952 2.794 7.952 2.794s5.755-1.05 7.95-2.794c-.157-2.963-2.559-4.528-5.507-4.528" fill="#5BAADC" fill-rule="nonzero"/><path d="M35.481 36.289h-4.887c-2.948 0-5.35 1.565-5.508 4.528 2.196 1.744 4.952 2.794 7.952 2.794s5.755-1.05 7.95-2.794c-.157-2.963-2.559-4.528-5.507-4.528zm2.39 13.18h12.424m-30.2 0h11.504m-5.752 5.858h-5.752m24.447 0H31.16m6.711 5.857h2.357m-20.133 5.858h2.357m5.353 0h2.357M20.095 72.9h2.357m-2.357-11.716h11.504" stroke="#5D6D81" stroke-width="2" stroke-linecap="round" stroke-linejoin="round"/></g></svg>