<svg width="100" height="100" viewBox="0 0 100 100" xmlns="http://www.w3.org/2000/svg"><title>design-categories-flyer-design</title><g fill="none" fill-rule="evenodd"><path fill="#F5F5F5" d="M36.165 81.684l-29.25 6.134V21.873l29.25-6.134z"/><path d="M36.165 81.684V15.739l-29.25 6.134v65.945l29.25-6.134zm.412 1.781l-29.25 6.134C6.132 89.85 5 88.983 5 87.818V21.873c0-.856.625-1.597 1.503-1.781l29.25-6.134c1.195-.25 2.327.616 2.327 1.78v65.946c0 .856-.625 1.597-1.503 1.781z" fill="#5D6D81" fill-rule="nonzero"/><path fill="#F5F5F5" d="M93.085 74.944l-29.25 10.622V21.839l29.25-9.103z"/><path d="M63.835 86.312l29.25-11.368V12.736l-29.25 9.103v64.473zm-1.915 0V21.839c0-.789.532-1.488 1.32-1.733l29.25-9.104c1.238-.385 2.51.493 2.51 1.734v62.208c0 .741-.47 1.409-1.191 1.689L64.559 88c-1.26.49-2.64-.393-2.64-1.688z" fill="#5D6D81" fill-rule="nonzero"/><path fill="#6E8097" d="M63.835 86.316l-27.67-4.602V15.739l27.67 6.137z"/><path d="M63.835 86.316v-64.44l-27.67-6.137v65.975l27.67 4.602zm-.33 1.797l-27.67-4.603c-.916-.152-1.585-.91-1.585-1.796V15.739c0-1.174 1.149-2.043 2.35-1.776L64.269 20.1c.867.192 1.48.928 1.48 1.776v64.44c0 1.133-1.072 1.992-2.244 1.797z" fill="#5D6D81" fill-rule="nonzero"/><path d="M22.445 63.116c6.39 0 9.558-7.131 9.558-13.444 0-6.314-3.168-9.418-9.558-9.418S9.868 45.37 9.868 51.684s6.186 11.432 12.577 11.432z" stroke="#5D6D81" stroke-width="1.5" stroke-dasharray="3"/><g fill="#5D6D81"><path d="M28.837 49.93a.18.18 0 0 0-.197-.143c-1.49.2-4.008.313-4.42-.237-.946-1.263-.222-5.095-.215-5.134a.185.185 0 0 0-.129-.214.178.178 0 0 0-.215.119c-.01.031-1.065 3.182-3.279 3.922-2.003.67-4.816-1.543-4.844-1.566a.174.174 0 0 0-.248.032.19.19 0 0 0 .026.257c.022.02 2.218 1.928 2.314 3.61-.27.881-2.747 1.908-3.688 2.231a.186.186 0 0 0-.113.231c.029.096.127.15.22.122.033-.01 3.25-.978 4.581.762.622.813-.328 3.306-.747 4.198a.188.188 0 0 0 .074.242.172.172 0 0 0 .087.024c.059 0 .116-.03.15-.086.61-.995 2.42-3.602 3.456-3.708 1.78-.183 3.632 2.461 3.65 2.488a.174.174 0 0 0 .246.045.189.189 0 0 0 .049-.254c-.557-.885-1.894-3.388-1.398-4.318.472-.886 3.423-2.038 4.52-2.407a.186.186 0 0 0 .12-.216"/><path d="M26.72 46.751a1.18 1.18 0 0 1 .348 1.636 1.188 1.188 0 0 1-1.64.348 1.18 1.18 0 0 1-.349-1.635 1.187 1.187 0 0 1 1.64-.349m-11.067 2.366c.55.354.706 1.087.348 1.634a1.185 1.185 0 0 1-1.988-1.287 1.186 1.186 0 0 1 1.64-.347m1.581 5.518a1.18 1.18 0 0 1 .349 1.635 1.187 1.187 0 0 1-1.64.348 1.18 1.18 0 0 1-.35-1.635 1.187 1.187 0 0 1 1.64-.348m5.534 1.576a1.18 1.18 0 0 1 .35 1.636 1.187 1.187 0 0 1-1.64.348 1.18 1.18 0 0 1-.35-1.635 1.187 1.187 0 0 1 1.64-.349m4.744-3.941a1.18 1.18 0 0 1 .349 1.635 1.187 1.187 0 0 1-1.64.348 1.18 1.18 0 0 1-.35-1.635 1.188 1.188 0 0 1 1.641-.348m-7.115-7.095a1.18 1.18 0 0 1 .349 1.635 1.187 1.187 0 0 1-1.64.348 1.18 1.18 0 0 1-.349-1.635 1.187 1.187 0 0 1 1.64-.348"/></g></g></svg>