<svg width="100" height="100" viewBox="0 0 100 100" xmlns="http://www.w3.org/2000/svg"><title>design-categories-postcard-design</title><g fill="none" fill-rule="evenodd"><path stroke="#5D6D81" stroke-width="2" fill="#F5F5F5" stroke-linecap="round" d="M6 18v64.167h88V18z"/><path fill="#6E8097" d="M70.563 41.163h11.81V29.245h-11.81z"/><path stroke="#5D6D81" stroke-width="2" stroke-linecap="round" d="M70.563 41.163h11.81V29.245h-11.81zm-54.327-5.562h29.919m-29.919 7.151h29.919M28.046 27.656h-11.81"/><g stroke-linecap="round" stroke-width="2"><path d="M60.409 60.072c1.68-2.012 4.401-2.012 6.081 0m6.082 0c-1.68 2.013-4.402 2.013-6.082 0m6.082 0c1.68-2.012 4.402-2.012 6.082 0m6.081 0c-1.68 2.013-4.401 2.013-6.081 0" stroke="#5CA6D4"/><path d="M60.409 69.13c1.68-2.013 4.401-2.013 6.081 0m6.082 0c-1.68 2.012-4.402 2.012-6.082 0m6.082 0c1.68-2.013 4.402-2.013 6.082 0m6.081 0c-1.68 2.012-4.401 2.012-6.081 0" stroke="#EBB200"/></g><path d="M46.166 73.585v-.857c.611 0 1.213-.067 1.8-.2l.188.837a9.03 9.03 0 0 1-1.988.22zm3.901-.887l-.372-.772a8.148 8.148 0 0 0 1.533-.962l.534.671a9.005 9.005 0 0 1-1.695 1.063zm3.129-2.492l-.67-.536a8.15 8.15 0 0 0 .968-1.53l.771.376a9.006 9.006 0 0 1-1.07 1.69zm1.733-3.557l-.834-.196c.137-.585.21-1.187.214-1.798l.858.008a9.02 9.02 0 0 1-.238 1.986zm.028-4.005l-.837.184a8.08 8.08 0 0 0-.583-1.712l.775-.365c.285.603.501 1.238.645 1.893zm-1.704-3.61l-.675.53a8.195 8.195 0 0 0-1.267-1.293l.542-.664c.518.423.988.902 1.4 1.428zm-3.166-2.554l-.374.771a8.081 8.081 0 0 0-1.706-.602l.193-.835a8.938 8.938 0 0 1 1.887.666zm-3.822-.896l-.01.857h-.087c-.583 0-1.156.06-1.715.18l-.18-.838a9.04 9.04 0 0 1 1.992-.2zm-3.91.844l.362.776a8.144 8.144 0 0 0-1.543.946l-.526-.677a9.03 9.03 0 0 1 1.706-1.045zm-3.157 2.458l.664.543a8.153 8.153 0 0 0-.985 1.519l-.767-.384a9.01 9.01 0 0 1 1.088-1.678zm-1.772 3.54l.832.204a8.153 8.153 0 0 0-.234 1.795l-.857-.017a9.01 9.01 0 0 1 .259-1.983zm-.072 4.004l.84-.175a8.08 8.08 0 0 0 .565 1.719l-.78.357a8.937 8.937 0 0 1-.625-1.9zm1.665 3.627l.68-.522c.368.48.789.918 1.254 1.306l-.55.658a9.052 9.052 0 0 1-1.384-1.442zm3.136 2.587l.383-.767c.54.27 1.11.478 1.699.621l-.203.833a8.94 8.94 0 0 1-1.879-.687zm3.815.94l.018-.858.175.002v.857c-.065 0-.13 0-.193-.002zm6.127-10.269c.073-.01.141.04.158.113a.147.147 0 0 1-.095.172c-.877.294-3.234 1.21-3.611 1.914-.396.74.671 2.729 1.116 3.433a.15.15 0 0 1-.039.201.14.14 0 0 1-.196-.036c-.014-.02-1.494-2.123-2.915-1.977-.828.084-2.274 2.156-2.76 2.948a.141.141 0 0 1-.121.068.138.138 0 0 1-.07-.019.15.15 0 0 1-.058-.192c.334-.71 1.093-2.691.596-3.338-1.063-1.383-3.633-.614-3.658-.606a.142.142 0 0 1-.177-.097.148.148 0 0 1 .091-.183c.752-.258 2.73-1.074 2.945-1.775-.076-1.336-1.83-2.854-1.848-2.87a.15.15 0 0 1-.02-.204.14.14 0 0 1 .198-.024c.022.018 2.268 1.777 3.869 1.244 1.768-.588 2.61-3.093 2.62-3.118a.142.142 0 0 1 .17-.095c.073.02.118.095.104.17-.006.032-.584 3.078.171 4.082.329.438 2.34.348 3.53.189zm-1.582-2.481a1.074 1.074 0 1 1-1.17 1.801 1.074 1.074 0 0 1 1.17-1.801zm-8.294 2.105c.374.242.48.741.237 1.114a.805.805 0 1 1-.236-1.114zm.757 3.581c.332.242.427.741.211 1.115-.215.373-.659.48-.99.237-.333-.243-.426-.741-.211-1.114.215-.374.658-.48.99-.238zm4.395 1.626a.895.895 0 1 1-.974 1.502.895.895 0 0 1 .974-1.502zm3.045-2.865a.895.895 0 1 1-.975 1.502.895.895 0 0 1 .975-1.502zm-4.56-5.88a1.073 1.073 0 1 1-1.166 1.802A1.073 1.073 0 0 1 45.86 59.4z" fill="#5D6D81" fill-rule="nonzero"/></g></svg>