<svg width="100" height="100" viewBox="0 0 100 100" xmlns="http://www.w3.org/2000/svg"><title>design-categories-sticker-design</title><g fill="none" fill-rule="evenodd"><path d="M19.474 11.224c-4.555 0-8.247 3.601-8.247 8.044v60.324c0-4.443 3.692-8.043 8.247-8.043 4.556 0 8.248 3.6 8.248 8.043V19.268c0-4.443-3.692-8.044-8.248-8.044z" fill="#6E8097"/><path d="M19.474 11.224c-4.555 0-8.247 3.601-8.247 8.044v60.324c0-4.443 3.692-8.043 8.247-8.043 4.556 0 8.248 3.6 8.248 8.043V19.268c0-4.443-3.692-8.044-8.248-8.044z" stroke="#647C85" stroke-width="2"/><path d="M27.505 21.429v59.265c0-4.464-3.644-8.082-8.14-8.082-4.495 0-8.138 3.618-8.138 8.082v.08c0 4.419 3.608 8.002 8.057 8.002h69.262V21.429H27.505z" fill="#F5F5F5"/><path d="M53.632 65.937V64.27c1.189 0 2.36-.13 3.498-.387l.367 1.626a17.558 17.558 0 0 1-3.865.428zm7.586-1.725l-.723-1.502c1.06-.51 2.06-1.138 2.98-1.87l1.037 1.305a17.51 17.51 0 0 1-3.294 2.067zm6.083-4.845L66 58.325a15.846 15.846 0 0 0 1.882-2.974l1.499.729a17.513 17.513 0 0 1-2.08 3.287zm3.37-6.918l-1.622-.38c.266-1.138.407-2.307.418-3.495l1.666.014a17.54 17.54 0 0 1-.462 3.861zm.055-7.786l-1.628.358a15.712 15.712 0 0 0-1.134-3.33l1.508-.71a17.378 17.378 0 0 1 1.254 3.682zm-3.314-7.019l-1.311 1.029a15.935 15.935 0 0 0-2.465-2.513l1.053-1.292a17.602 17.602 0 0 1 2.723 2.776zm-6.157-4.967l-.727 1.5a15.713 15.713 0 0 0-3.317-1.17l.375-1.625a17.38 17.38 0 0 1 3.67 1.295zm-7.431-1.743l-.018 1.667h-.17a15.91 15.91 0 0 0-3.336.35l-.349-1.63a17.578 17.578 0 0 1 3.685-.388l.188.001zm-7.604 1.642l.707 1.51a15.835 15.835 0 0 0-3.002 1.837l-1.023-1.316a17.502 17.502 0 0 1 3.318-2.031zm-6.136 4.779l1.29 1.056a15.853 15.853 0 0 0-1.915 2.953l-1.49-.745a17.52 17.52 0 0 1 2.115-3.264zm-3.447 6.882l1.619.398a15.853 15.853 0 0 0-.456 3.49l-1.667-.032a17.52 17.52 0 0 1 .504-3.856zm-.138 7.787l1.631-.34a15.71 15.71 0 0 0 1.1 3.342l-1.516.695a17.377 17.377 0 0 1-1.215-3.697zm3.236 7.052l1.323-1.014a15.935 15.935 0 0 0 2.437 2.54l-1.068 1.28a17.601 17.601 0 0 1-2.692-2.806zm6.098 5.032l.744-1.492c1.05.524 2.157.93 3.303 1.208l-.393 1.62a17.383 17.383 0 0 1-3.654-1.336zm7.417 1.825l.036-1.666c.113.002.226.003.34.003l-.001 1.667c-.125 0-.25-.001-.375-.004zm11.915-19.966a.279.279 0 0 1 .306.22.287.287 0 0 1-.185.335c-1.704.57-6.287 2.35-7.02 3.72-.77 1.438 1.305 5.307 2.17 6.676a.291.291 0 0 1-.076.391.271.271 0 0 1-.38-.07c-.03-.04-2.906-4.127-5.67-3.844-1.609.164-4.42 4.193-5.368 5.731a.275.275 0 0 1-.234.133.268.268 0 0 1-.134-.037.29.29 0 0 1-.114-.374c.65-1.378 2.125-5.232 1.16-6.489-2.07-2.69-7.065-1.194-7.115-1.179a.276.276 0 0 1-.343-.188.287.287 0 0 1 .177-.356c1.461-.501 5.308-2.088 5.726-3.451-.148-2.599-3.559-5.55-3.594-5.58a.291.291 0 0 1-.039-.397.271.271 0 0 1 .385-.048c.044.035 4.411 3.455 7.524 2.42 3.438-1.145 5.076-6.014 5.093-6.063a.276.276 0 0 1 .333-.184.285.285 0 0 1 .2.331c-.011.06-1.135 5.983.334 7.936.64.85 4.55.677 6.864.367zm-3.076-4.825a2.089 2.089 0 1 1-2.274 3.504 2.089 2.089 0 0 1 2.274-3.504zm-16.127 4.094c.726.47.932 1.442.46 2.166a1.563 1.563 0 0 1-2.166.461 1.565 1.565 0 0 1-.46-2.166 1.565 1.565 0 0 1 2.166-.46zm1.472 6.964c.645.47.829 1.44.41 2.166-.42.727-1.281.933-1.927.461-.645-.471-.828-1.44-.41-2.166.42-.726 1.281-.933 1.927-.461zm8.545 3.16a1.74 1.74 0 1 1-1.893 2.921 1.74 1.74 0 0 1 1.893-2.92zm5.92-5.57a1.74 1.74 0 1 1-1.894 2.92 1.74 1.74 0 0 1 1.894-2.92zm-8.864-11.433a2.088 2.088 0 1 1-2.273 3.505 2.088 2.088 0 0 1 2.273-3.505z" fill="#5D6D81" fill-rule="nonzero"/><path d="M27.505 21.429v59.265c0-4.464-3.644-8.082-8.14-8.082-4.495 0-8.138 3.618-8.138 8.082v.08c0 4.419 3.608 8.002 8.057 8.002h69.262V21.429H27.505z" stroke="#5D6D81" stroke-width="2"/><path fill="#6E8097" d="M67.928 81.633h15.464v-8.164H67.928z"/><path stroke="#5D6D81" stroke-width="2" stroke-linecap="round" d="M67.928 81.633h15.464v-8.164H67.928z"/><path d="M62.773 73.47h-7.216" stroke="#5BAADC" stroke-width="2" stroke-linecap="round"/><path d="M61.742 77.551h-9.278" stroke="#7DDEB1" stroke-width="2" stroke-linecap="round"/><path d="M61.742 81.633H48.34" stroke="#EBB200" stroke-width="2" stroke-linecap="round"/></g></svg>