<svg width="100" height="100" viewBox="0 0 100 100" xmlns="http://www.w3.org/2000/svg"><title>design-categories-tattoo-design</title><g fill="none" fill-rule="evenodd"><path d="M50.234 8C27.17 8 8.47 20.69 8.47 36.345c0 10.313 8.118 19.338 20.253 24.298v2.558c0 2.466 1.932 4.465 4.314 4.465 2.349 0 4.249-1.944 4.305-4.36a.024.024 0 0 0 .01.002v4.358c0 2.467 1.931 4.466 4.314 4.466 2.36 0 4.273-1.963 4.307-4.399.005.014.007.003.007-.067 0-2.466 1.932-4.465 4.315-4.465 2.383 0 4.314 1.999 4.314 4.465 0 .07.003.08.006.067.036 2.436 1.949 4.4 4.308 4.4 2.383 0 4.315-2 4.315-4.467v-4.385l.007-.001c.042 2.429 1.95 4.386 4.307 4.386 2.383 0 4.314-1.999 4.314-4.465v-2.605C83.936 55.626 92 46.626 92 36.346 92 20.69 73.302 8 50.234 8z" fill="#F4F4F4"/><path d="M50.234 8C27.17 8 8.47 20.69 8.47 36.345c0 10.313 8.118 19.338 20.253 24.298v2.558c0 2.466 1.932 4.465 4.314 4.465 2.349 0 4.249-1.944 4.305-4.36a.024.024 0 0 0 .01.002v4.358c0 2.467 1.931 4.466 4.314 4.466 2.36 0 4.273-1.963 4.307-4.399.005.014.007.003.007-.067 0-2.466 1.932-4.465 4.315-4.465 2.383 0 4.314 1.999 4.314 4.465 0 .07.003.08.006.067.036 2.436 1.949 4.4 4.308 4.4 2.383 0 4.315-2 4.315-4.467v-4.385l.007-.001c.042 2.429 1.95 4.386 4.307 4.386 2.383 0 4.314-1.999 4.314-4.465v-2.605C83.936 55.626 92 46.626 92 36.346 92 20.69 73.302 8 50.234 8z" stroke="#5D6D81" stroke-width="2" stroke-linejoin="round"/><path d="M66.114 30.452c-4.79 0-8.79 3.467-9.81 8.105 1.02 4.639 5.02 8.104 9.81 8.104 4.79 0 8.79-3.465 9.81-8.104-1.02-4.638-5.02-8.105-9.81-8.105z" fill="#7DDEB1"/><path d="M66.114 30.452c-4.79 0-8.79 3.467-9.81 8.105 1.02 4.639 5.02 8.104 9.81 8.104 4.79 0 8.79-3.465 9.81-8.104-1.02-4.638-5.02-8.105-9.81-8.105z" stroke="#5D6D81" stroke-width="2" stroke-linejoin="round"/><path d="M35.914 27.475c-6.158 0-11.302 4.457-12.611 10.42 1.309 5.965 6.453 10.42 12.61 10.42 6.159 0 11.303-4.455 12.611-10.42-1.308-5.963-6.452-10.42-12.61-10.42z" fill="#EBB200"/><path d="M35.914 27.475c-6.158 0-11.302 4.457-12.611 10.42 1.309 5.965 6.453 10.42 12.61 10.42 6.159 0 11.303-4.455 12.611-10.42-1.308-5.963-6.452-10.42-12.61-10.42z" stroke="#5D6D81" stroke-width="2" stroke-linejoin="round"/><path d="M31.6 30.329c0 .821-.645 1.488-1.439 1.488s-1.438-.667-1.438-1.488c0-.822.644-1.489 1.438-1.489.794 0 1.438.667 1.438 1.489m5.753 0c0 .821-.644 1.488-1.438 1.488-.794 0-1.438-.667-1.438-1.488 0-.822.644-1.489 1.438-1.489.794 0 1.438.667 1.438 1.489m5.752 0c0 .821-.644 1.488-1.438 1.488-.794 0-1.438-.667-1.438-1.488 0-.822.644-1.489 1.438-1.489.794 0 1.438.667 1.438 1.489m-2.876 2.977c0 .821-.644 1.488-1.438 1.488-.794 0-1.438-.667-1.438-1.488 0-.822.644-1.489 1.438-1.489.794 0 1.438.667 1.438 1.489m-5.752 0c0 .821-.645 1.488-1.439 1.488-.793 0-1.438-.667-1.438-1.488 0-.822.645-1.489 1.438-1.489.794 0 1.439.667 1.439 1.489M31.6 36.283c0 .822-.645 1.488-1.439 1.488s-1.438-.666-1.438-1.488.644-1.489 1.438-1.489c.794 0 1.438.667 1.438 1.489m5.753 0c0 .822-.644 1.488-1.438 1.488-.794 0-1.438-.666-1.438-1.488s.644-1.489 1.438-1.489c.794 0 1.438.667 1.438 1.489m5.752 0c0 .822-.644 1.488-1.438 1.488-.794 0-1.438-.666-1.438-1.488s.644-1.489 1.438-1.489c.794 0 1.438.667 1.438 1.489m24.448-2.977c0 .821-.644 1.488-1.438 1.488-.794 0-1.438-.667-1.438-1.488 0-.822.644-1.489 1.438-1.489.794 0 1.438.667 1.438 1.489m5.753 0c0 .821-.645 1.488-1.439 1.488-.793 0-1.438-.667-1.438-1.488 0-.822.645-1.489 1.438-1.489.794 0 1.439.667 1.439 1.489m0 5.954c0 .822-.645 1.489-1.439 1.489-.793 0-1.438-.667-1.438-1.489 0-.822.645-1.489 1.438-1.489.794 0 1.439.667 1.439 1.489M61.8 33.306c0 .821-.645 1.488-1.438 1.488-.794 0-1.439-.667-1.439-1.488 0-.822.645-1.489 1.439-1.489.793 0 1.438.667 1.438 1.489m2.876 2.977c0 .822-.644 1.488-1.438 1.488-.794 0-1.438-.666-1.438-1.488s.644-1.489 1.438-1.489c.794 0 1.438.667 1.438 1.489m0 5.954c0 .822-.644 1.489-1.438 1.489-.794 0-1.438-.667-1.438-1.489 0-.822.644-1.488 1.438-1.488.794 0 1.438.666 1.438 1.488m5.752 0c0 .822-.644 1.489-1.438 1.489-.794 0-1.438-.667-1.438-1.489 0-.822.644-1.488 1.438-1.488.794 0 1.438.666 1.438 1.488m-2.876 2.977c0 .822-.644 1.489-1.438 1.489-.794 0-1.438-.667-1.438-1.489 0-.821.644-1.488 1.438-1.488.794 0 1.438.667 1.438 1.488m8.628-8.931c0 .822-.643 1.488-1.437 1.488s-1.438-.666-1.438-1.488.644-1.489 1.438-1.489c.794 0 1.438.667 1.438 1.489m-17.258 0c0 .822-.644 1.488-1.438 1.488-.793 0-1.438-.666-1.438-1.488s.645-1.489 1.438-1.489c.794 0 1.438.667 1.438 1.489m11.505 0c0 .822-.644 1.488-1.438 1.488-.794 0-1.438-.666-1.438-1.488s.644-1.489 1.438-1.489c.794 0 1.438.667 1.438 1.489m-2.876 2.977c0 .822-.644 1.489-1.438 1.489-.794 0-1.438-.667-1.438-1.489 0-.822.644-1.489 1.438-1.489.794 0 1.438.667 1.438 1.489m-5.752 0c0 .822-.645 1.489-1.438 1.489-.794 0-1.439-.667-1.439-1.489 0-.822.645-1.489 1.439-1.489.793 0 1.438.667 1.438 1.489m-21.572 0c0 .822-.644 1.489-1.438 1.489-.794 0-1.438-.667-1.438-1.489 0-.822.644-1.489 1.438-1.489.794 0 1.438.667 1.438 1.489m-5.752 0c0 .822-.645 1.489-1.439 1.489-.793 0-1.438-.667-1.438-1.489 0-.822.645-1.489 1.438-1.489.794 0 1.439.667 1.439 1.489M31.6 42.237c0 .822-.645 1.489-1.439 1.489s-1.438-.667-1.438-1.489c0-.822.644-1.488 1.438-1.488.794 0 1.438.666 1.438 1.488m5.753 0c0 .822-.644 1.489-1.438 1.489-.794 0-1.438-.667-1.438-1.489 0-.822.644-1.488 1.438-1.488.794 0 1.438.666 1.438 1.488m5.752 0c0 .822-.644 1.489-1.438 1.489-.794 0-1.438-.667-1.438-1.489 0-.822.644-1.488 1.438-1.488.794 0 1.438.666 1.438 1.488m2.876-2.977c0 .822-.644 1.489-1.438 1.489-.793 0-1.438-.667-1.438-1.489 0-.822.645-1.489 1.438-1.489.794 0 1.438.667 1.438 1.489m0-5.954c0 .821-.644 1.488-1.438 1.488-.793 0-1.438-.667-1.438-1.488 0-.822.645-1.489 1.438-1.489.794 0 1.438.667 1.438 1.489m-17.257 0c0 .821-.644 1.488-1.438 1.488-.794 0-1.438-.667-1.438-1.488 0-.822.644-1.489 1.438-1.489.794 0 1.438.667 1.438 1.489m0 5.954c0 .822-.644 1.489-1.438 1.489-.794 0-1.438-.667-1.438-1.489 0-.822.644-1.489 1.438-1.489.794 0 1.438.667 1.438 1.489m-2.876-2.977c0 .822-.644 1.488-1.438 1.488-.794 0-1.438-.666-1.438-1.488s.644-1.489 1.438-1.489c.794 0 1.438.667 1.438 1.489m23.01 0c0 .822-.645 1.488-1.438 1.488-.794 0-1.439-.666-1.439-1.488s.645-1.489 1.439-1.489c.793 0 1.438.667 1.438 1.489m-8.629 8.931c0 .822-.644 1.489-1.438 1.489-.794 0-1.438-.667-1.438-1.489 0-.821.644-1.488 1.438-1.488.794 0 1.438.667 1.438 1.488m-5.752 0c0 .822-.645 1.489-1.439 1.489-.793 0-1.438-.667-1.438-1.489 0-.821.645-1.488 1.438-1.488.794 0 1.439.667 1.439 1.488" fill="#5D6D81"/><path d="M67.32 75.117c-2.333.125-4.082 2.294-4.082 4.711 0 2.417-1.749 4.586-4.083 4.711-2.488.136-4.546-1.913-4.546-4.458v-.253c0-2.417-1.749-4.586-4.083-4.711-2.488-.136-4.546 1.912-4.546 4.458 0 2.419-1.748 4.333-4.082 4.46-2.488.135-4.546-1.913-4.546-4.46v.253c0-2.417-1.749-4.586-4.083-4.711-2.488-.136-4.546 1.912-4.546 4.458v2.977c0 4.933 3.863 8.931 8.629 8.931h25.886c4.766 0 8.628-3.998 8.628-8.931v-2.977c0-2.546-2.057-4.594-4.545-4.458z" fill="#F4F4F4"/><path d="M67.32 75.117c-2.333.125-4.082 2.294-4.082 4.711 0 2.417-1.749 4.586-4.083 4.711-2.488.136-4.546-1.913-4.546-4.458v-.253c0-2.417-1.749-4.586-4.083-4.711-2.488-.136-4.546 1.912-4.546 4.458 0 2.419-1.748 4.333-4.082 4.46-2.488.135-4.546-1.913-4.546-4.46v.253c0-2.417-1.749-4.586-4.083-4.711-2.488-.136-4.546 1.912-4.546 4.458v2.977c0 4.933 3.863 8.931 8.629 8.931h25.886c4.766 0 8.628-3.998 8.628-8.931v-2.977c0-2.546-2.057-4.594-4.545-4.458zM48.857 40.872c0 7.4-5.794 13.397-12.943 13.397-7.15 0-12.943-5.997-12.943-13.397 0-7.398 5.794-13.397 12.943-13.397s12.943 5.999 12.943 13.397zm27.323 0c0 5.755-4.506 10.42-10.066 10.42-5.56 0-10.067-4.665-10.067-10.42s4.507-10.42 10.067-10.42c5.56 0 10.067 4.665 10.067 10.42z" stroke="#5D6D81" stroke-width="2" stroke-linejoin="round"/></g></svg>