<svg width="100" height="100" viewBox="0 0 100 100" xmlns="http://www.w3.org/2000/svg"><title>design-categories-photoshop-design</title><g fill="none" fill-rule="evenodd"><path d="M72.236 89H27.762C18.504 89 11 81.496 11 72.236V27.764C11 18.504 18.504 11 27.762 11h44.474C81.494 11 89 18.504 89 27.764v44.472C89 81.496 81.494 89 72.236 89" fill="#F5F5F5"/><path d="M72.236 89H27.762C18.504 89 11 81.496 11 72.236V27.764C11 18.504 18.504 11 27.762 11h44.474C81.494 11 89 18.504 89 27.764v44.472C89 81.496 81.494 89 72.236 89z" stroke="#5D6D81" stroke-width="2" stroke-linecap="round" stroke-linejoin="round"/><path d="M29 52h9.79c1.407 0 2.598-.283 3.576-.848.976-.567 1.69-1.172 2.14-1.819.448-.647.8-1.575 1.054-2.788.254-1.212.39-2.12.41-2.727.02-.606.03-1.474.03-2.606C46 35.072 43.517 32 38.555 32H29v20zm.313 18H25V28h14.438c3.913 0 6.819 1.22 8.716 3.66C50.05 34.099 51 37.3 51 41.26c0 1.4-.04 2.61-.12 3.63-.08 1.02-.33 2.301-.749 3.84-.419 1.54-.988 2.8-1.707 3.78-.719.981-1.818 1.839-3.295 2.58-1.478.741-3.235 1.11-5.272 1.11H29.313V70z" fill="#EBB200"/><path d="M55 62.394l4.242-.182c.161 1.495.91 2.657 2.243 3.485 1.333.829 2.868 1.242 4.606 1.242 1.736 0 3.242-.394 4.515-1.182 1.273-.788 1.91-1.918 1.91-3.394 0-1.474-.546-2.647-1.637-3.515-1.091-.868-2.424-1.555-4-2.06a159.911 159.911 0 0 1-4.758-1.607 11.15 11.15 0 0 1-4.212-2.667c-1.495-1.413-2.242-3.14-2.242-5.18 0-2.041.818-3.941 2.454-5.699C59.758 39.877 62.414 39 66.091 39c1.292 0 2.504.15 3.636.453 1.13.305 1.94.597 2.425.879l.727.424-1.394 3.819c-1.294-1.01-2.991-1.516-5.091-1.516-2.102 0-3.667.394-4.697 1.184-1.03.786-1.545 1.786-1.545 2.998 0 1.334.645 2.385 1.939 3.152 1.292.768 2.747 1.415 4.364 1.94a72.728 72.728 0 0 1 4.818 1.759c1.595.645 2.95 1.656 4.06 3.03C76.443 58.495 77 60.313 77 62.575c0 2.264-.91 4.234-2.727 5.911C72.455 70.161 69.797 71 66.303 71c-3.495 0-6.233-.829-8.212-2.485-1.98-1.656-3.01-3.697-3.091-6.121" fill="#5BAADC"/></g></svg>