<svg width="100" height="100" viewBox="0 0 100 100" xmlns="http://www.w3.org/2000/svg"><title>design-categories-youtube-design</title><g fill="none" fill-rule="evenodd"><path d="M93.105 31.316s-.86-6.462-3.496-9.306c-3.347-3.729-7.096-3.752-8.815-3.963C68.48 17.095 50.012 17 50.012 17h-.041s-18.47.095-30.78 1.047c-1.72.212-5.465.234-8.815 3.963-2.634 2.844-3.496 9.306-3.496 9.306S6 38.899 6 46.48v7.107c0 7.586.88 15.166.88 15.166s.859 6.459 3.496 9.298c3.35 3.73 7.742 3.617 9.7 4.007 7.04.72 29.916.942 29.916.942s18.488-.033 30.802-.975c1.719-.219 5.468-.241 8.815-3.97 2.635-2.84 3.496-9.299 3.496-9.299s.88-7.582.88-15.166v-7.107c0-7.584-.88-15.167-.88-15.167" fill="#F08481" fill-rule="nonzero"/><path d="M93.105 31.316s-.86-6.462-3.496-9.306c-3.347-3.729-7.096-3.752-8.815-3.963C68.48 17.095 50.012 17 50.012 17h-.041s-18.47.095-30.78 1.047c-1.72.212-5.465.234-8.815 3.963-2.634 2.844-3.496 9.306-3.496 9.306S6 38.899 6 46.48v7.107c0 7.586.88 15.166.88 15.166s.859 6.459 3.496 9.298c3.35 3.73 7.742 3.617 9.7 4.007 7.04.72 29.916.942 29.916.942s18.488-.033 30.802-.975c1.719-.219 5.468-.241 8.815-3.97 2.635-2.84 3.496-9.299 3.496-9.299s.88-7.582.88-15.166v-7.107c0-7.584-.88-15.167-.88-15.167z" stroke="#5D6D81" stroke-width="2"/><path fill="#FFF" fill-rule="nonzero" d="M39.38 34.815v32.63l28.827-15.946z"/><path stroke="#5D6D81" stroke-width="2" stroke-linecap="round" stroke-linejoin="round" d="M39.38 34.815v32.63l28.827-15.946z"/></g></svg>