<svg width="100" height="100" viewBox="0 0 100 100" xmlns="http://www.w3.org/2000/svg" xmlns:xlink="http://www.w3.org/1999/xlink"><title>design-categories-t-shirt-design</title><defs><path id="a" d="M1 83h90V1H1z"/></defs><g transform="translate(4 8)" fill="none" fill-rule="evenodd"><path d="M74.266 9.4L57.663 1.82c-2.431 12.892-12.8 13.028-12.8 13.028s-8.918-.136-11.35-13.028L16.911 9.4 1.818 33.66l12.065 9.097 9.047-10.613V82.18h45.317V32.144l7.538 10.613 13.579-9.097L74.266 9.4z" fill="#F5F5F5"/><path d="M21.93 34.858l-7.286 8.548a1 1 0 0 1-1.363.15L1.216 34.459a1 1 0 0 1-.247-1.327l15.093-24.26a1 1 0 0 1 .433-.381L33.098.911a1 1 0 0 1 1.398.724c.875 4.638 2.647 7.835 5.036 9.865 1.196 1.016 2.472 1.675 3.744 2.048.44.129.846.213 1.206.262.205.027.34.037.367.038a5.52 5.52 0 0 0 .472-.038 10.91 10.91 0 0 0 1.38-.253 12.338 12.338 0 0 0 4.233-1.947c2.823-2.02 4.854-5.243 5.747-9.975A1 1 0 0 1 58.079.91L74.68 8.491a1 1 0 0 1 .434.381l15.098 24.26a1 1 0 0 1-.293 1.359l-13.578 9.097a1 1 0 0 1-1.372-.252l-5.723-8.057V82.18a1 1 0 0 1-1 1H22.93a1 1 0 0 1-1-1V34.858zm51.646-24.673L58.38 3.247c-1.103 4.58-3.3 7.856-6.282 9.99a14.323 14.323 0 0 1-4.917 2.262c-1.015.251-1.818.342-2.334.348-.459-.007-1.201-.106-2.134-.38a12.202 12.202 0 0 1-4.476-2.443c-2.519-2.14-4.41-5.349-5.444-9.776L17.6 10.185 3.15 33.412l10.582 7.98 8.436-9.897c.603-.708 1.76-.281 1.76.649V81.18h43.318V32.144c0-.975 1.251-1.374 1.815-.58l6.975 9.82 11.967-8.017-14.428-23.182z" fill="#5D6D81" fill-rule="nonzero"/><path d="M46.818 14.517c-.466.056-.76.065-.76.065s-9.321-.133-11.864-12.762l-5.306 2.147-4.16 10.973h22.09v-.423z" fill="#FBD86A"/><path d="M46.7 13.524a1 1 0 0 1 1.118.993v.423a1 1 0 0 1-1 1h-22.09a1 1 0 0 1-.936-1.355l4.161-10.973a1 1 0 0 1 .56-.572L33.82.893a1 1 0 0 1 1.356.73c.912 4.531 2.76 7.655 5.257 9.644a10.96 10.96 0 0 0 3.938 2.017c.466.128.895.212 1.276.26.218.027.365.037.381.038.12-.003.354-.02.673-.058zm-7.514-.693c-2.643-2.105-4.627-5.27-5.71-9.642l-3.808 1.54-3.492 9.211h14.632a13.367 13.367 0 0 1-1.622-1.109z" fill="#5D6D81" fill-rule="nonzero"/><path d="M45.182 14.517c.466.056.76.065.76.065s9.321-.133 11.864-12.762l5.306 2.147 4.16 10.973h-22.09v-.423z" fill="#FBD86A"/><path d="M65.824 13.94l-3.492-9.21-3.809-1.54c-1.082 4.371-3.066 7.536-5.71 9.641-.528.421-1.07.79-1.621 1.109h14.632zM45.3 13.524c.319.038.554.055.628.058.061-.001.208-.01.426-.038.381-.048.81-.132 1.276-.26a10.968 10.968 0 0 0 3.938-2.017c2.497-1.989 4.345-5.113 5.257-9.644a1 1 0 0 1 1.356-.73l5.306 2.147a1 1 0 0 1 .56.572l4.16 10.973a1 1 0 0 1-.934 1.355H45.182a1 1 0 0 1-1-1v-.423a1 1 0 0 1 1.118-.993z" fill="#5D6D81" fill-rule="nonzero"/><mask id="b" fill="#fff"><use xlink:href="#a"/></mask><path fill="#7DDEB1" mask="url(#b)" d="M23.91 74.8h22.908v-4.92H23.91z"/><path fill="#F08481" mask="url(#b)" d="M46.818 74.8H68.91v-4.92H46.82z"/><g mask="url(#b)" fill="#5D6D81" fill-rule="nonzero"><path d="M46.06 48.692v-1.143c.815 0 1.618-.09 2.4-.266l.25 1.115a12.04 12.04 0 0 1-2.65.294zm5.202-1.183l-.496-1.03c.727-.35 1.412-.78 2.044-1.283l.711.895a12.007 12.007 0 0 1-2.259 1.418zm4.171-3.323l-.892-.714c.505-.63.938-1.314 1.29-2.04l1.028.5c-.39.802-.868 1.558-1.426 2.254zm2.311-4.743l-1.112-.262c.183-.78.28-1.581.286-2.396l1.143.01c-.007.9-.114 1.786-.317 2.648zm.038-5.34l-1.116.246a10.774 10.774 0 0 0-.778-2.283l1.034-.487c.38.805.668 1.65.86 2.525zm-2.272-4.812l-.9.705a10.927 10.927 0 0 0-1.69-1.723l.723-.886a12.07 12.07 0 0 1 1.867 1.904zm-4.222-3.407l-.499 1.029a10.775 10.775 0 0 0-2.274-.803l.257-1.113c.872.201 1.715.5 2.516.887zm-5.096-1.194l-.013 1.143-.116-.001c-.778 0-1.542.081-2.287.24l-.24-1.117a12.054 12.054 0 0 1 2.527-.266h.129zm-5.214 1.125l.484 1.035c-.73.343-1.42.765-2.058 1.26l-.701-.902a12.001 12.001 0 0 1 2.275-1.393zm-4.208 3.277l.884.724a10.87 10.87 0 0 0-1.312 2.025l-1.022-.51c.398-.798.885-1.55 1.45-2.239zm-2.363 4.72l1.11.273a10.87 10.87 0 0 0-.313 2.392l-1.143-.021c.017-.9.134-1.785.346-2.645zm-.095 5.34l1.119-.234c.165.792.418 1.56.753 2.292l-1.039.476a11.97 11.97 0 0 1-.833-2.535zm2.219 4.835l.907-.696a10.93 10.93 0 0 0 1.671 1.742l-.732.877a12.07 12.07 0 0 1-1.846-1.923zm4.181 3.45l.51-1.023c.72.36 1.48.637 2.266.828l-.27 1.11a11.92 11.92 0 0 1-2.506-.915zm5.086 1.252l.025-1.143c.078.002.155.003.233.003v1.143l-.258-.003zm8.17-13.691a.191.191 0 0 1 .21.15.197.197 0 0 1-.126.23c-1.169.391-4.312 1.612-4.815 2.551-.528.987.896 3.639 1.489 4.578a.2.2 0 0 1-.052.268.186.186 0 0 1-.261-.047c-.02-.029-1.993-2.831-3.888-2.637-1.103.112-3.03 2.875-3.68 3.93a.189.189 0 0 1-.16.091.184.184 0 0 1-.093-.025.2.2 0 0 1-.078-.256c.445-.946 1.457-3.588.795-4.45-1.419-1.845-4.844-.82-4.879-.809a.19.19 0 0 1-.235-.128.197.197 0 0 1 .121-.245c1.003-.343 3.64-1.431 3.927-2.366-.101-1.782-2.44-3.806-2.464-3.826a.2.2 0 0 1-.027-.273.186.186 0 0 1 .264-.033c.03.024 3.025 2.37 5.159 1.66 2.358-.785 3.481-4.124 3.492-4.158a.19.19 0 0 1 .23-.126.196.196 0 0 1 .136.227c-.008.041-.778 4.103.229 5.442.438.583 3.12.464 4.707.252zm-2.109-3.309a1.432 1.432 0 1 1-1.56 2.403 1.432 1.432 0 0 1 1.56-2.403zm-11.058 2.808c.498.321.64.988.315 1.485a1.073 1.073 0 1 1-.315-1.485zm1.01 4.775c.441.322.567.987.28 1.485-.287.499-.878.64-1.32.316-.444-.323-.569-.988-.282-1.485.288-.498.879-.64 1.321-.316zm5.859 2.167a1.193 1.193 0 1 1-1.299 2.003 1.193 1.193 0 0 1 1.299-2.003zm4.06-3.82a1.193 1.193 0 1 1-1.3 2.002 1.193 1.193 0 0 1 1.3-2.002zm-6.08-7.84a1.43 1.43 0 1 1-1.558 2.403 1.432 1.432 0 1 1 1.559-2.403z"/></g><path stroke="#5D6D81" stroke-width="2" stroke-linecap="round" stroke-linejoin="round" mask="url(#b)" d="M23.91 74.8h44.18v-4.92H23.91z"/></g></svg>