<svg width="100" height="100" viewBox="0 0 100 100" xmlns="http://www.w3.org/2000/svg"><title>design-categories-graphic-design</title><g fill="none" fill-rule="evenodd"><path fill="#6E8097" d="M10 90h80V10H10z"/><path d="M9 91V9h82v82H9zm2-2h78V11H11v78z" fill="#5D6D81" fill-rule="nonzero"/><path fill="#5D6D81" fill-rule="nonzero" d="M16.111 83.889V16.11H83.89v67.78z"/><path fill="#FFF" d="M18.111 81.889H81.89V18.11H18.11z"/><path d="M50.22 68.226v-1.714c1.223 0 2.428-.135 3.6-.399l.376 1.673a18.06 18.06 0 0 1-3.975.44zm7.804-1.774l-.744-1.545a16.296 16.296 0 0 0 3.065-1.923l1.067 1.342a18.01 18.01 0 0 1-3.388 2.126zm6.257-4.984l-1.339-1.072a16.298 16.298 0 0 0 1.935-3.059l1.542.75a18.013 18.013 0 0 1-2.138 3.38zm3.466-7.115l-1.67-.392c.275-1.17.42-2.372.43-3.594l1.715.014a18.041 18.041 0 0 1-.475 3.972zm.057-8.009l-1.675.368a16.16 16.16 0 0 0-1.167-3.424l1.551-.731a17.875 17.875 0 0 1 1.29 3.787zm-3.41-7.22l-1.348 1.059a16.39 16.39 0 0 0-2.536-2.585l1.084-1.329a18.105 18.105 0 0 1 2.8 2.856zm-6.332-5.109l-.748 1.543a16.162 16.162 0 0 0-3.412-1.204l.386-1.67a17.89 17.89 0 0 1 3.774 1.331zm-7.644-1.792l-.018 1.715-.175-.001c-1.166 0-2.313.121-3.43.36l-.36-1.676a18.08 18.08 0 0 1 3.983-.398zm-7.821 1.689l.727 1.553a16.288 16.288 0 0 0-3.087 1.89L39.185 36c1.056-.82 2.2-1.522 3.412-2.09zm-6.312 4.915l1.327 1.086a16.306 16.306 0 0 0-1.969 3.038l-1.533-.767a18.02 18.02 0 0 1 2.175-3.357zm-3.545 7.079l1.665.41a16.306 16.306 0 0 0-.469 3.59l-1.714-.034c.026-1.348.2-2.676.518-3.966zm-.142 8.01l1.678-.35a16.16 16.16 0 0 0 1.13 3.437l-1.558.715a17.874 17.874 0 0 1-1.25-3.802zm3.329 7.253l1.36-1.043a16.39 16.39 0 0 0 2.507 2.612l-1.098 1.316a18.104 18.104 0 0 1-2.77-2.885zm6.272 5.175l.765-1.534c1.08.539 2.22.956 3.398 1.242l-.405 1.666a17.88 17.88 0 0 1-3.758-1.374zm7.63 1.878l.036-1.714c.116.002.233.004.35.004l-.001 1.714c-.129 0-.258-.001-.386-.004zm12.255-20.537a.287.287 0 0 1 .314.227.295.295 0 0 1-.19.344c-1.753.587-6.467 2.418-7.222 3.827-.792 1.48 1.344 5.458 2.233 6.866a.3.3 0 0 1-.077.403.28.28 0 0 1-.392-.072c-.03-.042-2.99-4.246-5.832-3.955-1.654.169-4.546 4.313-5.52 5.896a.283.283 0 0 1-.241.136.276.276 0 0 1-.139-.037.299.299 0 0 1-.117-.385c.668-1.418 2.186-5.382 1.192-6.675-2.127-2.767-7.265-1.228-7.317-1.213a.284.284 0 0 1-.353-.193.296.296 0 0 1 .182-.367c1.503-.515 5.46-2.147 5.89-3.549-.152-2.673-3.66-5.708-3.697-5.739a.3.3 0 0 1-.04-.409.28.28 0 0 1 .396-.05c.045.037 4.538 3.555 7.739 2.49 3.536-1.177 5.221-6.186 5.238-6.236.048-.147.2-.23.343-.19.145.04.235.19.206.341-.012.062-1.168 6.154.343 8.163.658.875 4.68.696 7.06.377zm-3.165-4.962a2.148 2.148 0 1 1-2.339 3.604 2.148 2.148 0 0 1 2.34-3.604zm-16.587 4.21c.747.484.959 1.483.472 2.229-.482.747-1.48.96-2.227.474a1.61 1.61 0 0 1-.474-2.228 1.61 1.61 0 0 1 2.229-.474zm1.514 7.163c.663.484.852 1.482.421 2.229-.43.747-1.317.959-1.982.474-.663-.485-.851-1.482-.42-2.228.43-.747 1.317-.96 1.98-.475zm8.79 3.252a1.79 1.79 0 1 1-1.949 3.004 1.79 1.79 0 0 1 1.948-3.004zm6.088-5.73a1.79 1.79 0 1 1-1.948 3.003 1.79 1.79 0 0 1 1.948-3.003zm-9.117-11.76a2.148 2.148 0 1 1-2.338 3.605 2.148 2.148 0 0 1 2.338-3.605z" fill="#5D6D81" fill-rule="nonzero"/></g></svg>