<svg width="100" height="100" viewBox="0 0 100 100" xmlns="http://www.w3.org/2000/svg"><title>design-categories-poster-design</title><g fill="none" fill-rule="evenodd"><path fill="#6E8097" d="M10 90h80V31.538H10z"/><path d="M9 91V30.538h82V91H9zm2-2h78V32.538H11V89z" fill="#5D6D81" fill-rule="nonzero"/><path fill="#F5F5F5" d="M16.4 83.846h68.267V37.692H16.4z"/><path d="M15.4 84.846V36.692h70.267v48.154H15.4zm2-2h66.267V38.692H17.4v44.154z" fill="#5D6D81" fill-rule="nonzero"/><path d="M42.304 63.642L17.04 84.616a1 1 0 1 1-1.278-1.54l25.947-21.538a1 1 0 0 1 1.324.042l16.72 15.764a1 1 0 1 1-1.371 1.455L42.304 63.642z" fill="#5D6D81" fill-rule="nonzero"/><path d="M51.25 70.184a1 1 0 1 1-1.434-1.393l15.929-16.41a1 1 0 0 1 1.37-.061L85.32 68.016a1 1 0 1 1-1.306 1.515L66.524 54.45 51.25 70.184z" fill="#5D6D81" fill-rule="nonzero"/><path d="M56.933 15.641c0 3.115-2.626 5.641-5.866 5.641-3.24 0-5.867-2.526-5.867-5.641S47.827 10 51.067 10s5.866 2.526 5.866 5.641" fill="#6E8097"/><path d="M55.933 15.641c0-2.554-2.17-4.641-4.866-4.641-2.696 0-4.867 2.087-4.867 4.641s2.17 4.641 4.867 4.641c2.696 0 4.866-2.087 4.866-4.641zm2 0c0 3.677-3.083 6.641-6.866 6.641-3.784 0-6.867-2.964-6.867-6.641C44.2 11.965 47.283 9 51.067 9c3.783 0 6.866 2.965 6.866 6.641z" fill="#5D6D81" fill-rule="nonzero"/><path d="M54.869 12.739c-.798-.842.237-2.139 1.235-1.548 2.676 1.582 6.198 4.033 10.371 7.165.723.542 1.462 1.103 2.215 1.68a417.002 417.002 0 0 1 9.338 7.38 446.278 446.278 0 0 1 4.081 3.356c.716.6.292 1.766-.642 1.766h-60.8c-.934 0-1.358-1.166-.643-1.766l.29-.242.823-.683c.887-.733 1.884-1.55 2.968-2.431a416.641 416.641 0 0 1 9.337-7.38c.754-.578 1.494-1.139 2.218-1.682 4.172-3.13 7.694-5.58 10.37-7.163.997-.59 2.032.706 1.235 1.548-.822.868-1.278 1.948-1.278 3.09 0 2.589 2.26 4.713 5.08 4.713 2.819 0 5.08-2.124 5.08-4.712 0-1.143-.456-2.223-1.278-3.091zm3.192 2.058c.057.339.086.683.086 1.033 0 3.721-3.184 6.712-7.08 6.712-3.897 0-7.08-2.99-7.08-6.712 0-.35.029-.695.085-1.033-2.082 1.39-4.507 3.127-7.212 5.157-.719.539-1.453 1.096-2.202 1.67a414.69 414.69 0 0 0-9.292 7.344c-.677.55-1.32 1.075-1.923 1.57H78.69c-.603-.495-1.246-1.02-1.923-1.57a415.051 415.051 0 0 0-9.292-7.345 287.07 287.07 0 0 0-2.2-1.668c-2.706-2.03-5.131-3.768-7.214-5.158zM38.858 50.263a.162.162 0 0 1 .178.128.167.167 0 0 1-.108.195c-.994.333-3.67 1.372-4.097 2.172-.45.84.762 3.097 1.267 3.895a.17.17 0 0 1-.044.229.158.158 0 0 1-.223-.04c-.017-.025-1.696-2.41-3.308-2.245-.94.096-2.58 2.447-3.133 3.345a.16.16 0 0 1-.136.078.157.157 0 0 1-.08-.021.17.17 0 0 1-.066-.219c.38-.804 1.24-3.053.677-3.787-1.207-1.57-4.122-.697-4.152-.688a.161.161 0 0 1-.2-.11.168.168 0 0 1 .103-.208c.853-.292 3.098-1.218 3.342-2.013-.086-1.517-2.077-3.24-2.097-3.256a.17.17 0 0 1-.023-.233.158.158 0 0 1 .225-.028c.025.02 2.574 2.017 4.39 1.412 2.007-.667 2.963-3.51 2.972-3.538a.161.161 0 0 1 .195-.107.167.167 0 0 1 .117.193c-.007.035-.663 3.492.195 4.632.373.496 2.655.394 4.006.214zm-1.796-2.816a1.219 1.219 0 1 1-1.327 2.045 1.219 1.219 0 0 1 1.327-2.045zm-9.411 2.39a.912.912 0 0 1 .268 1.263.913.913 0 1 1-.268-1.264zm.859 4.063c.376.275.483.84.239 1.265-.245.424-.748.544-1.124.269-.377-.275-.484-.841-.24-1.265.245-.424.748-.544 1.125-.269zm4.987 1.845a1.016 1.016 0 1 1-1.105 1.704 1.016 1.016 0 0 1 1.105-1.704zm3.455-3.251a1.016 1.016 0 1 1-1.106 1.704 1.016 1.016 0 0 1 1.106-1.704zm-5.174-6.672a1.218 1.218 0 1 1-1.326 2.044 1.218 1.218 0 1 1 1.326-2.044z" fill="#5D6D81" fill-rule="nonzero"/><path d="M32.127 61.917v-.973c.694 0 1.377-.076 2.041-.226l.214.95c-.734.165-1.49.25-2.255.25zm4.427-1.007l-.422-.876a9.246 9.246 0 0 0 1.74-1.091l.604.761c-.593.472-1.238.877-1.922 1.206zm3.55-2.827l-.76-.608a9.247 9.247 0 0 0 1.099-1.736l.875.425a10.22 10.22 0 0 1-1.214 1.919zm1.967-4.037l-.947-.223a9.264 9.264 0 0 0 .244-2.039l.972.008c-.006.766-.097 1.52-.27 2.254zm.032-4.544l-.95.209a9.169 9.169 0 0 0-.662-1.943l.88-.415c.323.685.568 1.405.732 2.149zm-1.934-4.096l-.766.6a9.3 9.3 0 0 0-1.438-1.467l.615-.753c.588.48 1.12 1.023 1.589 1.62zm-3.593-2.9l-.424.876a9.17 9.17 0 0 0-1.936-.683l.219-.948c.741.172 1.46.425 2.14.756zm-4.337-1.016l-.01.973h-.1c-.662 0-1.312.068-1.946.204l-.204-.951c.701-.15 1.42-.227 2.15-.227l.11.001zm-4.438.958l.413.881a9.241 9.241 0 0 0-1.752 1.072l-.597-.768c.6-.465 1.249-.863 1.936-1.185zm-3.58 2.789l.752.616a9.252 9.252 0 0 0-1.117 1.724l-.87-.435c.34-.68.754-1.318 1.234-1.905zm-2.012 4.016l.944.233a9.252 9.252 0 0 0-.266 2.036l-.972-.018c.015-.766.114-1.52.294-2.25zm-.081 4.545l.952-.199c.14.675.356 1.328.642 1.95l-.885.406a10.141 10.141 0 0 1-.709-2.157zm1.889 4.115l.772-.592a9.3 9.3 0 0 0 1.422 1.482l-.623.747a10.272 10.272 0 0 1-1.571-1.637zm3.559 2.936l.434-.87a9.178 9.178 0 0 0 1.928.705l-.23.945c-.74-.18-1.454-.442-2.132-.78zm4.328 1.066l.02-.973c.067.002.133.002.2.002l-.001.973c-.073 0-.146 0-.219-.002z" fill="#F3AF2B"/></g></svg>