<svg width="150" height="150" viewBox="0 0 150 150" xmlns="http://www.w3.org/2000/svg" xmlns:xlink="http://www.w3.org/1999/xlink"><title>personas-designer</title><defs><path id="a" d="M29.445 55.11l-3.82-2.344-3.818 2.344-5.047-.48.133 1.333 5.776 2.12 2.957.188 2.956-.189 5.777-2.12.133-1.333z"/></defs><g fill="none" fill-rule="evenodd"><g transform="translate(7 31)"><path d="M28.834 60.8s8.386 1.673 13.602 3.067c5.215 1.394 5.779 7.178 6.202 10.942.423 3.694-15.153 4.391-24.315 4.391S-.414 78.503.008 74.81c.423-3.695.987-9.55 6.202-10.943 5.216-1.394 13.532-3.067 13.532-3.067" fill="#5BAADC" fill-rule="nonzero"/><path d="M31.9 61.533l-3.52-.733h-9.076s-1.76.367-4.152.88c.422 4.4 4.01 7.92 8.374 7.92 4.433 0 8.021-3.593 8.373-8.067z" fill="#000" fill-rule="nonzero" opacity=".1"/><path d="M17.545 66.473c1.58 1.89 3.95 3.127 6.606 3.127 4.524 0 8.187-3.49 8.546-8" stroke="#5D6D81" stroke-width="2" stroke-linecap="round"/><path d="M28.71 55.2v5.486c0 2.263-1.975 4.114-4.387 4.114-2.412 0-4.386-1.851-4.386-4.114V55.2M42.6 29.735h-.282V13.6H5.6v16.135h-.212c-2.471 0-4.59 2.034-4.59 4.49 0 2.455 1.907 4.49 4.379 4.49h.353v.14c0 10.172 8.12 16.345 18.36 16.345 10.238 0 18.359-6.173 18.359-16.345v-.281h.353c2.471 0 4.448-1.964 4.448-4.49.071-2.385-1.977-4.35-4.448-4.35z" fill="#FFDCBD" fill-rule="nonzero"/><path d="M5.808 19.692c.351.07 4.915 4.9 15.729 4.2 12.288-.77 11.586-7.14 11.586-7.14s2.879 5.88 9.199 4.2v8.258s1.404-1.05 3.862 1.19c-.211-.21.07-14.697.07-14.697 0-9.868-10.744-16.097-17.976-14.137C22.87-2.214 1.595.306 1.595 15.143V30.33h4.213V19.692z" fill="#EBB200" fill-rule="nonzero"/><path d="M46.254 31.2V16c0-11.193-10.816-16.42-17.545-14.4C22.878-2.256 1.595.428 1.595 15.2V32h3.987V20c.2-.148 3.619 4.654 15.95 4 12.092-.476 11.394-7.115 11.165-7.2.229.085 4.137 6.512 9.57 4v4" stroke="#5D6D81" stroke-width="2" stroke-linecap="round" stroke-linejoin="round"/><path d="M5.582 29.6C2.966 29.6.797 31.525.797 34c0 2.406 2.094 4.4 4.785 4.4" fill="#FFDCBD" fill-rule="nonzero"/><path d="M42.266 21.6v17.084c0 10.278-7.936 16.516-17.943 16.516-10.007 0-17.943-6.238-17.943-16.516V21.6m22.33 33.6v5.486c0 2.263-1.975 4.114-4.387 4.114-2.412 0-4.386-1.851-4.386-4.114V55.2" stroke="#5D6D81" stroke-width="2" stroke-linecap="round" stroke-linejoin="round"/><path d="M28.834 60.8s8.386 1.673 13.602 3.067c5.215 1.394 5.779 7.178 6.202 10.942.423 3.694-15.153 4.391-24.315 4.391S-.414 78.503.008 74.81c.423-3.695.987-9.55 6.202-10.943 5.216-1.394 13.532-3.067 13.532-3.067M5.582 29.6C2.966 29.6.797 31.525.797 34c0 2.406 2.094 4.4 4.785 4.4m36.684-8.8c2.617 0 4.785 1.925 4.785 4.4 0 2.406-2.093 4.4-4.785 4.4" stroke="#5D6D81" stroke-width="2" stroke-linecap="round" stroke-linejoin="round"/><ellipse fill="#5D6D81" fill-rule="nonzero" cx="31.899" cy="33.2" rx="2.392" ry="2"/><ellipse fill="#5D6D81" fill-rule="nonzero" cx="15.95" cy="33.2" rx="2.392" ry="2"/><path d="M21.532 44.8s2.163 1.8 4.785 0" stroke="#5D6D81" stroke-width="2" stroke-linecap="round" stroke-linejoin="round"/></g><g transform="translate(94.18 31)"><path d="M0 63.967V16.374C0 7.78 10.909-2.722 24.176.73c13.783-3.746 24.47 7.785 24.47 15.13V63.6c-16.215 5.73-32.43 5.876-48.646.367z" fill="#42526E" fill-rule="nonzero"/><path d="M0 63.995V16.381C0 7.784 10.909-2.723 24.176.73c13.783-3.747 24.47 7.789 24.47 15.137v47.76c-17.32 5.88-33.463 5.659-48.646.368z" stroke="#5D6D81" stroke-width="2" stroke-linecap="round" stroke-linejoin="round"/><path d="M28.472 59.2s6.84 1.752 11.105 3.212c4.265 1.46 4.706 7.518 5.074 11.46.368 3.941-12.428 5.328-19.93 5.328-7.5 0-20.296-1.46-19.928-5.328.367-3.87.809-10 5.074-11.46 4.265-1.46 11.178-3.212 11.178-3.212" fill="#F08481" fill-rule="nonzero"/><path d="M33.494 60.447c-2.59-.734-4.664-1.247-4.664-1.247h-7.55s-2.443.587-5.33 1.393c.666 4.18 4.293 7.407 8.735 7.407 4.441 0 8.143-3.3 8.81-7.553z" fill="#000" fill-rule="nonzero" opacity=".1"/><path d="M17.545 65.665a9.257 9.257 0 0 0 6.954 3.127c4.762 0 8.617-3.49 8.995-8" stroke="#5D6D81" stroke-width="2" stroke-linecap="round"/><path d="M28.472 59.2s6.84 1.752 11.105 3.212c4.265 1.46 4.706 7.518 5.074 11.46.368 3.941-12.428 5.328-19.93 5.328-7.5 0-20.296-1.46-19.928-5.328.367-3.87.809-10 5.074-11.46 4.265-1.46 11.178-3.212 11.178-3.212" stroke="#5D6D81" stroke-width="2" stroke-linecap="round" stroke-linejoin="round"/><path d="M28.71 53.6v5.943c0 2.451-1.975 4.457-4.387 4.457-2.412 0-4.386-2.006-4.386-4.457V53.6m24.029-25.226h-.298V14.4H5.05v13.974h-.223C2.228 28.374 0 30.507 0 33.08s2.005 4.707 4.604 4.707h.372v.147c0 10.664 8.54 15.665 19.309 15.665 10.769 0 19.31-5.001 19.31-15.665v-.294h.37c2.6 0 4.68-2.06 4.68-4.707.074-2.501-2.08-4.56-4.68-4.56z" fill="#FFDCBD" fill-rule="nonzero"/><path d="M43.861 23.409c-13 5.055-26.076 5.055-39.076 0V13.6H43.86v9.809z" fill="#42526E" fill-rule="nonzero"/><path d="M4.785 28.8A4.778 4.778 0 0 0 0 33.6c0 2.625 2.093 4.8 4.785 4.8" fill="#FFDCBD" fill-rule="nonzero"/><path d="M43.064 20.8v17.836c0 10.731-8.466 15.764-19.14 15.764-10.674 0-19.14-5.033-19.14-15.764V20.8M28.71 54.4v5.943c0 2.451-1.975 4.457-4.387 4.457-2.412 0-4.386-2.006-4.386-4.457V54.4" stroke="#5D6D81" stroke-width="2" stroke-linecap="round" stroke-linejoin="round"/><path d="M4.785 28.8A4.778 4.778 0 0 0 0 33.6c0 2.625 2.093 4.8 4.785 4.8m39.076-9.6c2.617 0 4.785 2.1 4.785 4.8 0 2.625-2.093 4.8-4.785 4.8" stroke="#5D6D81" stroke-width="2" stroke-linecap="round" stroke-linejoin="round"/><ellipse fill="#5D6D81" fill-rule="nonzero" cx="32.697" cy="32.8" rx="2.392" ry="2.4"/><ellipse fill="#5D6D81" fill-rule="nonzero" cx="15.95" cy="32.8" rx="2.392" ry="2.4"/><path d="M21.532 40.8s2.523 1.8 5.582 0m-2.392-14.4v-12m6.38 11.2V14.4m5.582 9.6v-9.6M16.747 25.6V14.4M11.165 24v-9.6" stroke="#5D6D81" stroke-width="2" stroke-linecap="round" stroke-linejoin="round"/></g><g transform="translate(47.974 31)"><path d="M31.036 65.778s9.028 2.02 14.641 3.703c5.614 1.684 6.22 8.67 6.676 13.216C52.808 87.158 36.043 88 26.181 88 16.32 88-.446 87.158.01 82.697c.455-4.461 1.062-11.532 6.676-13.216 5.614-1.683 14.565-3.703 14.565-3.703" fill="#FBD86A" fill-rule="nonzero"/><path d="M34.336 66.663l-3.787-.885h-9.77s-1.894.443-4.47 1.063c.455 5.314 4.318 9.565 9.014 9.565 4.771 0 8.634-4.34 9.013-9.743z" fill="#000" fill-rule="nonzero" opacity=".1"/><path d="M18.885 72.629c1.7 2.284 4.251 3.777 7.111 3.777 4.87 0 8.812-4.216 9.198-9.662" stroke="#5D6D81" stroke-width="2" stroke-linecap="round"/><path d="M30.902 59.014v6.626c0 2.733-2.124 4.969-4.72 4.969-2.598 0-4.722-2.236-4.722-4.97v-6.625M45.855 28.26h-.304v-9.922c-6.587-6.377-13.175-9.565-19.762-9.565S12.614 11.96 6.027 18.338v9.922h-.228c-2.66 0-4.94 2.457-4.94 5.422s2.052 5.422 4.712 5.422h.38v.17c0 12.285 8.74 19.74 19.762 19.74 11.021 0 19.762-7.455 19.762-19.74v-.34h.38c2.66 0 4.788-2.371 4.788-5.422.076-2.88-2.128-5.252-4.788-5.252z" fill="#FFDCBD" fill-rule="nonzero"/><path d="M45.841 28.095h-.304v-15.66C38.95 4.783 32.362.957 25.775.957S12.6 4.783 6.013 12.435v15.66h-.228c-2.66 0-4.94 2.457-4.94 5.423 0 2.965 2.052 5.422 4.712 5.422h.38c0 12.454 8.741 19.91 19.762 19.91s19.762-7.456 19.762-19.74v-.34h.38c2.66 0 4.789-2.372 4.789-5.422.076-2.88-2.129-5.253-4.789-5.253z" fill="#FFDCBD" fill-rule="nonzero"/><path d="M6.009 28.097c-2.817 0-5.15 2.324-5.15 5.314 0 2.906 2.253 5.314 5.15 5.314" fill="#FFDCBD" fill-rule="nonzero"/><path d="M45.495 12.696v26.371c0 12.414-8.543 19.947-19.314 19.947S6.867 51.481 6.867 39.067V12.696h38.628zM30.902 59.014v6.626c0 2.733-2.124 4.969-4.72 4.969-2.598 0-4.722-2.236-4.722-4.97v-6.625" stroke="#5D6D81" stroke-width="2" stroke-linecap="round" stroke-linejoin="round"/><path d="M29.32 15.39c4.723 1.066 9.738 1.835 14.32.244 4.528-1.574 10.135-8.011 9.567-10.225-.568-2.214-8.775-1.12-12.966-3.029C30.025-2.275 16.973.047 8.917 8.047c-4.212 4.182-6.26 7.892.732 6.826 7.315-1.114 12.262-1.155 19.671.517z" stroke="#5D6D81" stroke-width="2" fill="#EC9356" fill-rule="nonzero"/><path d="M31.036 65.778s9.028 2.02 14.641 3.703c5.614 1.684 6.22 8.67 6.676 13.216C52.808 87.158 36.043 88 26.181 88 16.32 88-.446 87.158.01 82.697c.455-4.461 1.062-11.532 6.676-13.216 5.614-1.683 14.565-3.703 14.565-3.703M6.009 28.097c-2.817 0-5.15 2.324-5.15 5.314 0 2.906 2.253 5.314 5.15 5.314m39.486-10.628c2.817 0 5.15 2.324 5.15 5.314 0 2.906-2.253 5.314-5.15 5.314" stroke="#5D6D81" stroke-width="2" stroke-linecap="round" stroke-linejoin="round"/><ellipse fill="#5D6D81" fill-rule="nonzero" cx="34.336" cy="32.444" rx="2.575" ry="2.415"/><ellipse fill="#5D6D81" fill-rule="nonzero" cx="17.168" cy="32.444" rx="2.575" ry="2.415"/><path d="M25.906 48.438c-2.37 0-4.55-1.043-5.552-2.659a.566.566 0 0 1 .111-.727c.208-.166.496-.11.642.127.837 1.346 2.72 1.258 4.8 1.258 2.078 0 3.96.087 4.797-1.258.146-.236.434-.292.643-.127a.567.567 0 0 1 .11.727c-1.003 1.616-3.182 2.66-5.55 2.66z" fill="#5D6D81" fill-rule="nonzero"/><g fill-rule="nonzero"><use fill="#EC9356" fill-rule="evenodd" xlink:href="#a"/><path stroke="#5D6D81" stroke-width="2" d="M29.683 54.083l5.924-.564-.315 3.167-6.501 2.385-3.101.198h-.128l-3.102-.198-6.5-2.385-.316-3.167 5.925.564 4.057-2.49 4.057 2.49z"/></g></g></g></svg>