<svg width="150" height="150" viewBox="0 0 150 150" xmlns="http://www.w3.org/2000/svg" xmlns:xlink="http://www.w3.org/1999/xlink"><title>personas-customers</title><defs><path id="a" d="M26.671 49.599l-3.459-2.11-3.46 2.11-4.571-.433.12 1.2 5.232 1.908 2.679.17 2.678-.17 5.233-1.907.12-1.2z"/></defs><g fill="none" fill-rule="evenodd"><g transform="translate(7 31)"><path d="M0 63.967V16.374C0 7.78 10.979-2.722 24.332.73 38.204-3.016 48.96 8.515 48.96 15.86V63.6c-16.32 5.73-32.64 5.876-48.96.367z" fill="#42526E" fill-rule="nonzero"/><path d="M0 63.995V16.381C0 7.784 10.979-2.723 24.332.73 38.204-3.017 48.96 8.519 48.96 15.867v47.76c-17.433 5.88-33.679 5.659-48.96.368z" stroke="#5D6D81" stroke-width="2" stroke-linecap="round" stroke-linejoin="round"/><path d="M28.656 59.2s6.883 1.752 11.176 3.212c4.293 1.46 4.737 7.518 5.107 11.46.37 3.941-12.508 5.328-20.058 5.328-7.55 0-20.428-1.46-20.057-5.328.37-3.87.814-10 5.107-11.46 4.292-1.46 11.25-3.212 11.25-3.212" fill="#F08481" fill-rule="nonzero"/><path d="M33.71 60.447a163.065 163.065 0 0 0-4.694-1.247h-7.6s-2.458.587-5.364 1.393c.671 4.18 4.322 7.407 8.792 7.407s8.196-3.3 8.866-7.553z" fill="#000" fill-rule="nonzero" opacity=".1"/><path d="M17.658 65.665a9.342 9.342 0 0 0 6.999 3.127c4.793 0 8.673-3.49 9.053-8" stroke="#5D6D81" stroke-width="2" stroke-linecap="round"/><path d="M28.656 59.2s6.883 1.752 11.176 3.212c4.293 1.46 4.737 7.518 5.107 11.46.37 3.941-12.508 5.328-20.058 5.328-7.55 0-20.428-1.46-20.057-5.328.37-3.87.814-10 5.107-11.46 4.292-1.46 11.25-3.212 11.25-3.212" stroke="#5D6D81" stroke-width="2" stroke-linecap="round" stroke-linejoin="round"/><path d="M28.894 53.6v5.943c0 2.451-1.986 4.457-4.414 4.457s-4.414-2.006-4.414-4.457V53.6M44.25 28.374h-.3V14.4H5.083v13.974h-.225C2.242 28.374 0 30.507 0 33.08s2.018 4.707 4.634 4.707h.374v.147c0 10.664 8.596 15.665 19.434 15.665 10.838 0 19.433-5.001 19.433-15.665v-.294h.374c2.616 0 4.71-2.06 4.71-4.707.074-2.501-2.094-4.56-4.71-4.56z" fill="#FFDCBD" fill-rule="nonzero"/><path d="M44.144 23.409c-13.084 5.055-26.244 5.055-39.328 0V13.6h39.328v9.809z" fill="#42526E" fill-rule="nonzero"/><path d="M4.816 28.8C2.182 28.8 0 30.9 0 33.6c0 2.625 2.107 4.8 4.816 4.8" fill="#FFDCBD" fill-rule="nonzero"/><path d="M43.342 20.8v17.836c0 10.731-8.52 15.764-19.263 15.764-10.743 0-19.263-5.033-19.263-15.764V20.8m24.078 33.6v5.943c0 2.451-1.986 4.457-4.414 4.457s-4.414-2.006-4.414-4.457V54.4" stroke="#5D6D81" stroke-width="2" stroke-linecap="round" stroke-linejoin="round"/><path d="M4.816 28.8C2.182 28.8 0 30.9 0 33.6c0 2.625 2.107 4.8 4.816 4.8m39.328-9.6c2.634 0 4.816 2.1 4.816 4.8 0 2.625-2.107 4.8-4.816 4.8" stroke="#5D6D81" stroke-width="2" stroke-linecap="round" stroke-linejoin="round"/><ellipse fill="#5D6D81" fill-rule="nonzero" cx="32.908" cy="32.8" rx="2.408" ry="2.4"/><ellipse fill="#5D6D81" fill-rule="nonzero" cx="16.052" cy="32.8" rx="2.408" ry="2.4"/><path d="M21.67 40.8s2.54 1.8 5.62 0m-2.409-14.4v-12m6.421 11.2V14.4M36.92 24v-9.6M16.855 25.6V14.4M11.237 24v-9.6" stroke="#5D6D81" stroke-width="2" stroke-linecap="round" stroke-linejoin="round"/></g><g transform="translate(94.742 31)"><path d="M28.113 59.2s8.177 1.818 13.262 3.333c5.085 1.515 5.634 7.803 6.047 11.894.412 4.015-14.774 4.773-23.707 4.773-8.933 0-24.12-.758-23.707-4.773.413-4.015.962-10.379 6.047-11.894C11.14 61.018 19.25 59.2 19.25 59.2" fill="#FBD86A" fill-rule="nonzero"/><path d="M31.102 59.997l-3.43-.797h-8.85s-1.716.399-4.049.957c.412 4.782 3.91 8.608 8.164 8.608 4.323 0 7.822-3.906 8.165-8.768z" fill="#000" fill-rule="nonzero" opacity=".1"/><path d="M17.106 65.366c1.54 2.055 3.85 3.4 6.441 3.4 4.411 0 7.982-3.795 8.332-8.696" stroke="#5D6D81" stroke-width="2" stroke-linecap="round"/><path d="M27.991 53.113v5.963c0 2.46-1.924 4.472-4.276 4.472s-4.276-2.013-4.276-4.472v-5.963m22.097-27.679h-.276v-8.93c-5.967-5.739-11.933-8.608-17.9-8.608-5.967 0-11.934 2.87-17.9 8.608v8.93h-.207c-2.41 0-4.475 2.21-4.475 4.88 0 2.669 1.858 4.88 4.268 4.88h.344v.152c0 11.057 7.918 17.767 17.9 17.767 9.984 0 17.902-6.71 17.902-17.767v-.305h.344c2.41 0 4.337-2.135 4.337-4.88.069-2.592-1.928-4.727-4.337-4.727z" fill="#FFDCBD" fill-rule="nonzero"/><path d="M41.523 25.286h-.275V11.19C35.28 4.304 29.314.861 23.348.861 17.38.86 11.413 4.304 5.446 11.19v14.095H5.24c-2.41 0-4.475 2.211-4.475 4.88s1.859 4.88 4.269 4.88h.344c0 11.209 7.917 17.92 17.9 17.92 9.983 0 17.901-6.711 17.901-17.767v-.305h.344c2.41 0 4.338-2.136 4.338-4.88.068-2.593-1.928-4.728-4.338-4.728z" fill="#FFDCBD" fill-rule="nonzero"/><path d="M5.443 25.287c-2.552 0-4.665 2.092-4.665 4.783 0 2.615 2.04 4.782 4.665 4.782" fill="#FFDCBD" fill-rule="nonzero"/><path d="M41.21 11.426V35.16c0 11.173-7.738 17.953-17.495 17.953-9.757 0-17.495-6.78-17.495-17.953V11.426h34.99zM27.991 53.113v5.963c0 2.46-1.924 4.472-4.276 4.472s-4.276-2.013-4.276-4.472v-5.963" stroke="#5D6D81" stroke-width="2" stroke-linecap="round" stroke-linejoin="round"/><path d="M26.559 13.851c4.277.96 8.82 1.652 12.97.22 4.102-1.417 9.18-7.21 8.666-9.203-.514-1.992-7.948-1.008-11.745-2.726-9.253-4.19-21.076-2.1-28.373 5.1-3.815 3.764-5.67 7.103.663 6.144 6.626-1.003 11.108-1.04 17.819.465z" stroke="#5D6D81" stroke-width="2" fill="#EC9356" fill-rule="nonzero"/><path d="M28.113 59.2s8.177 1.818 13.262 3.333c5.085 1.515 5.634 7.803 6.047 11.894.412 4.015-14.774 4.773-23.707 4.773-8.933 0-24.12-.758-23.707-4.773.413-4.015.962-10.379 6.047-11.894C11.14 61.018 19.25 59.2 19.25 59.2M5.443 25.287c-2.552 0-4.665 2.092-4.665 4.783 0 2.615 2.04 4.782 4.665 4.782m35.767-9.565c2.551 0 4.665 2.092 4.665 4.783 0 2.615-2.041 4.782-4.665 4.782" stroke="#5D6D81" stroke-width="2" stroke-linecap="round" stroke-linejoin="round"/><ellipse fill="#5D6D81" fill-rule="nonzero" cx="31.102" cy="29.2" rx="2.333" ry="2.174"/><ellipse fill="#5D6D81" fill-rule="nonzero" cx="15.551" cy="29.2" rx="2.333" ry="2.174"/><path d="M23.466 43.594c-2.146 0-4.12-.939-5.03-2.393a.507.507 0 0 1 .101-.654c.188-.15.45-.1.582.114.758 1.211 2.464 1.133 4.347 1.133 1.883 0 3.588.078 4.346-1.133.132-.212.393-.263.582-.114.188.15.234.442.1.654-.908 1.454-2.882 2.393-5.028 2.393z" fill="#5D6D81" fill-rule="nonzero"/><g fill-rule="nonzero"><use fill="#EC9356" fill-rule="evenodd" xlink:href="#a"/><path stroke="#5D6D81" stroke-width="2" d="M26.908 48.572l5.451-.516-.304 3.035-5.958 2.172-2.822.18h-.126l-2.823-.18-5.957-2.172-.305-3.035 5.452.516 3.696-2.254 3.696 2.254z"/></g></g><g transform="translate(48.239 31)"><path d="M32.244 67.76s9.379 1.84 15.211 3.373c5.832 1.534 6.463 7.897 6.936 12.037C54.863 87.233 37.446 88 27.2 88 16.954 88-.463 87.233.01 83.17c.472-4.063 1.103-10.503 6.935-12.037 5.832-1.533 15.132-3.373 15.132-3.373" fill="#5BAADC" fill-rule="nonzero"/><path d="M35.097 68.567l-3.871-.807h-9.987s-1.936.403-4.568.968c.464 4.84 4.413 8.712 9.213 8.712 4.877 0 8.826-3.953 9.213-8.873z" fill="#000" fill-rule="nonzero" opacity=".1"/><path d="M19.303 74c1.738 2.08 4.346 3.44 7.27 3.44 4.977 0 9.006-3.84 9.401-8.8" stroke="#5D6D81" stroke-width="2" stroke-linecap="round"/><path d="M31.587 61.6v6.034c0 2.49-2.172 4.526-4.826 4.526-2.654 0-4.826-2.037-4.826-4.526V61.6m25.729-28.55h-.316V14.96H6.252v18.09h-.238c-2.766 0-5.137 2.28-5.137 5.033 0 2.753 2.134 5.034 4.9 5.034h.396v.157C6.173 54.68 15.26 61.6 26.72 61.6s20.548-6.921 20.548-18.326v-.314h.395c2.766 0 4.98-2.202 4.98-5.034.078-2.674-2.214-4.876-4.98-4.876z" fill="#FFDCBD" fill-rule="nonzero"/><path d="M6.473 21.661c.393.077 5.505 5.39 17.615 4.62 13.761-.847 12.975-7.853 12.975-7.853s3.224 6.467 10.301 4.619v9.084s1.573-1.155 4.325 1.309c-.236-.231.079-16.167.079-16.167 0-10.855-12.032-17.706-20.131-15.55C25.582-2.436 1.755.335 1.755 16.656v16.706h4.718V21.661z" fill="#EBB200" fill-rule="nonzero"/><path d="M51.768 34.32V17.59c0-12.318-12.113-18.07-19.648-15.847C25.59-2.5 1.755.454 1.755 16.71V35.2H6.22V21.994c.224-.164 4.053 5.122 17.862 4.402 13.541-.524 12.76-7.83 12.503-7.924.257.093 4.633 7.167 10.717 4.402v4.402" stroke="#5D6D81" stroke-width="2" stroke-linecap="round" stroke-linejoin="round"/><path d="M6.142 32.56c-2.88 0-5.265 2.117-5.265 4.84 0 2.647 2.304 4.84 5.265 4.84" fill="#FFDCBD" fill-rule="nonzero"/><path d="M47.38 23.76v18.792c0 11.306-8.925 18.168-20.18 18.168-11.255 0-20.18-6.862-20.18-18.168V23.76M31.587 61.6v6.034c0 2.49-2.172 4.526-4.826 4.526-2.654 0-4.826-2.037-4.826-4.526V61.6" stroke="#5D6D81" stroke-width="2" stroke-linecap="round" stroke-linejoin="round"/><path d="M32.244 67.76s9.379 1.84 15.211 3.373c5.832 1.534 6.463 7.897 6.936 12.037C54.863 87.233 37.446 88 27.2 88 16.954 88-.463 87.233.01 83.17c.472-4.063 1.103-10.503 6.935-12.037 5.832-1.533 15.132-3.373 15.132-3.373M6.142 32.56c-2.88 0-5.265 2.117-5.265 4.84 0 2.647 2.304 4.84 5.265 4.84m41.238-9.68c2.88 0 5.265 2.117 5.265 4.84 0 2.647-2.303 4.84-5.264 4.84" stroke="#5D6D81" stroke-width="2" stroke-linecap="round" stroke-linejoin="round"/><ellipse fill="#5D6D81" fill-rule="nonzero" cx="35.974" cy="36.52" rx="2.632" ry="2.2"/><ellipse fill="#5D6D81" fill-rule="nonzero" cx="17.548" cy="36.52" rx="2.632" ry="2.2"/><path d="M23.69 50.16s2.38 1.98 5.265 0" stroke="#5D6D81" stroke-width="2" stroke-linecap="round" stroke-linejoin="round"/></g></g></svg>